<svg width="98" height="27" viewBox="0 0 98 27" fill="none" xmlns="http://www.w3.org/2000/svg">
<path fill-rule="evenodd" clip-rule="evenodd" d="M6.10352e-05 5.86528V26H7.76777C11.5494 26 17.9884 24.4669 17.9884 15.8815C17.9884 7.29617 11.5494 5.86528 7.76777 5.86528H6.10352e-05ZM6.0303 12.5087V19.2544H8.59011C9.83634 19.2544 11.9583 18.7407 11.9583 15.8644C11.9583 12.9881 9.83634 12.5087 8.59011 12.5087H6.0303Z" fill="#6F52ED" fill-opacity="0.4"/>
<path fill-rule="evenodd" clip-rule="evenodd" d="M1.93268 3.93263V24.0674H9.70039C13.482 24.0674 19.9211 22.5343 19.9211 13.9489C19.9211 5.36353 13.482 3.93263 9.70039 3.93263H1.93268ZM7.96287 10.5761V17.3217H10.5227C11.7689 17.3217 13.8909 16.8081 13.8909 13.9318C13.8909 11.0555 11.7689 10.5761 10.5227 10.5761H7.96287Z" fill="#6F52ED" fill-opacity="0.5"/>
<path fill-rule="evenodd" clip-rule="evenodd" d="M3.86536 2V22.1347H11.6331C15.4147 22.1347 21.8537 20.6016 21.8537 12.0163C21.8537 3.43089 15.4147 2 11.6331 2H3.86536ZM9.89561 8.64345V15.3891H12.4554C13.7016 15.3891 15.8236 14.8755 15.8236 11.9992C15.8236 9.12284 13.7016 8.64345 12.4554 8.64345H9.89561Z" fill="#6F52ED" fill-opacity="0.8"/>
<path d="M28.1592 14.996C28.1592 14 28.3632 13.118 28.7712 12.35C29.1912 11.582 29.7552 10.988 30.4632 10.568C31.1832 10.136 31.9812 9.92 32.8572 9.92C33.5052 9.92 34.1412 10.064 34.7652 10.352C35.4012 10.628 35.9052 11 36.2772 11.468V6.68H38.3472V20H36.2772V18.506C35.9412 18.986 35.4732 19.382 34.8732 19.694C34.2852 20.006 33.6072 20.162 32.8392 20.162C31.9752 20.162 31.1832 19.946 30.4632 19.514C29.7552 19.07 29.1912 18.458 28.7712 17.678C28.3632 16.886 28.1592 15.992 28.1592 14.996ZM36.2772 15.032C36.2772 14.348 36.1332 13.754 35.8452 13.25C35.5692 12.746 35.2032 12.362 34.7472 12.098C34.2912 11.834 33.7992 11.702 33.2712 11.702C32.7432 11.702 32.2512 11.834 31.7952 12.098C31.3392 12.35 30.9672 12.728 30.6792 13.232C30.4032 13.724 30.2652 14.312 30.2652 14.996C30.2652 15.68 30.4032 16.28 30.6792 16.796C30.9672 17.312 31.3392 17.708 31.7952 17.984C32.2632 18.248 32.7552 18.38 33.2712 18.38C33.7992 18.38 34.2912 18.248 34.7472 17.984C35.2032 17.72 35.5692 17.336 35.8452 16.832C36.1332 16.316 36.2772 15.716 36.2772 15.032ZM45.3444 20.162C44.4084 20.162 43.5624 19.952 42.8064 19.532C42.0504 19.1 41.4564 18.5 41.0244 17.732C40.5924 16.952 40.3764 16.052 40.3764 15.032C40.3764 14.024 40.5984 13.13 41.0424 12.35C41.4864 11.57 42.0924 10.97 42.8604 10.55C43.6284 10.13 44.4864 9.92 45.4344 9.92C46.3824 9.92 47.2404 10.13 48.0084 10.55C48.7764 10.97 49.3824 11.57 49.8264 12.35C50.2704 13.13 50.4924 14.024 50.4924 15.032C50.4924 16.04 50.2644 16.934 49.8084 17.714C49.3524 18.494 48.7284 19.1 47.9364 19.532C47.1564 19.952 46.2924 20.162 45.3444 20.162ZM45.3444 18.38C45.8724 18.38 46.3644 18.254 46.8204 18.002C47.2884 17.75 47.6664 17.372 47.9544 16.868C48.2424 16.364 48.3864 15.752 48.3864 15.032C48.3864 14.312 48.2484 13.706 47.9724 13.214C47.6964 12.71 47.3304 12.332 46.8744 12.08C46.4184 11.828 45.9264 11.702 45.3984 11.702C44.8704 11.702 44.3784 11.828 43.9224 12.08C43.4784 12.332 43.1244 12.71 42.8604 13.214C42.5964 13.706 42.4644 14.312 42.4644 15.032C42.4644 16.1 42.7344 16.928 43.2744 17.516C43.8264 18.092 44.5164 18.38 45.3444 18.38ZM68.8109 7.49L65.1029 20H62.7809L60.1529 10.532L57.3629 20L55.0589 20.018L51.5129 7.49H53.6909L56.2829 17.678L59.0909 7.49H61.3949L64.0049 17.624L66.6149 7.49H68.8109ZM74.8053 20.162C73.8693 20.162 73.0233 19.952 72.2673 19.532C71.5113 19.1 70.9173 18.5 70.4853 17.732C70.0533 16.952 69.8373 16.052 69.8373 15.032C69.8373 14.024 70.0593 13.13 70.5033 12.35C70.9473 11.57 71.5533 10.97 72.3213 10.55C73.0893 10.13 73.9473 9.92 74.8953 9.92C75.8433 9.92 76.7013 10.13 77.4693 10.55C78.2373 10.97 78.8433 11.57 79.2873 12.35C79.7313 13.13 79.9533 14.024 79.9533 15.032C79.9533 16.04 79.7253 16.934 79.2693 17.714C78.8133 18.494 78.1893 19.1 77.3973 19.532C76.6173 19.952 75.7533 20.162 74.8053 20.162ZM74.8053 18.38C75.3333 18.38 75.8253 18.254 76.2813 18.002C76.7493 17.75 77.1273 17.372 77.4153 16.868C77.7033 16.364 77.8473 15.752 77.8473 15.032C77.8473 14.312 77.7093 13.706 77.4333 13.214C77.1573 12.71 76.7913 12.332 76.3353 12.08C75.8793 11.828 75.3873 11.702 74.8593 11.702C74.3313 11.702 73.8393 11.828 73.3833 12.08C72.9393 12.332 72.5853 12.71 72.3213 13.214C72.0573 13.706 71.9253 14.312 71.9253 15.032C71.9253 16.1 72.1953 16.928 72.7353 17.516C73.2873 18.092 73.9773 18.38 74.8053 18.38ZM84.0338 11.522C84.3338 11.018 84.7298 10.628 85.2218 10.352C85.7258 10.064 86.3198 9.92 87.0038 9.92V12.044H86.4818C85.6778 12.044 85.0658 12.248 84.6458 12.656C84.2378 13.064 84.0338 13.772 84.0338 14.78V20H81.9818V10.082H84.0338V11.522ZM92.814 15.05L97.386 20H94.614L90.942 15.734V20H88.89V6.68H90.942V14.42L94.542 10.082H97.386L92.814 15.05Z" fill="#4F37BD"/>
</svg>
