<svg width="50" height="50" viewBox="0 0 50 50" fill="none" xmlns="http://www.w3.org/2000/svg">
<rect width="50" height="50" rx="10" fill="white"/>
<path fill-rule="evenodd" clip-rule="evenodd" d="M8.33337 13.3957V44.1071H20.1814C25.9496 44.1071 35.771 41.7687 35.771 28.6734C35.771 15.5782 25.9496 13.3957 20.1814 13.3957H8.33337ZM17.5313 23.5289V33.818H21.4358C23.3367 33.818 26.5733 33.0346 26.5733 28.6473C26.5733 24.2601 23.3367 23.5289 21.4358 23.5289H17.5313Z" fill="#6F52ED" fill-opacity="0.4"/>
<path fill-rule="evenodd" clip-rule="evenodd" d="M11.2812 10.4478V41.1593H23.1293C28.8975 41.1593 38.7189 38.8208 38.7189 25.7256C38.7189 12.6304 28.8975 10.4478 23.1293 10.4478H11.2812ZM20.4791 20.5811V30.8702H24.3835C26.2844 30.8702 29.521 30.0867 29.521 25.6995C29.521 21.3123 26.2844 20.5811 24.3835 20.5811H20.4791Z" fill="#6F52ED" fill-opacity="0.5"/>
<path fill-rule="evenodd" clip-rule="evenodd" d="M14.2291 7.5V38.2114H26.0772C31.8453 38.2114 41.6667 35.873 41.6667 22.7778C41.6667 9.68254 31.8453 7.5 26.0772 7.5H14.2291ZM23.427 17.6332V27.9223H27.3315C29.2324 27.9223 32.469 27.1389 32.469 22.7517C32.469 18.3644 29.2324 17.6332 27.3315 17.6332H23.427Z" fill="#6F52ED" fill-opacity="0.8"/>
</svg>
