<svg width="14" height="12" viewBox="0 0 14 12" fill="none" xmlns="http://www.w3.org/2000/svg">
<g opacity="0.9">
<path d="M7.32749 9.02704C7.08209 9.27369 6.68421 9.27369 6.43881 9.02704L0.755342 3.31472C0.509941 3.06807 0.509941 2.66818 0.755343 2.42153L0.835193 2.34128C1.08059 2.09463 1.47847 2.09463 1.72387 2.34128L7.40734 8.0536C7.65274 8.30024 7.65274 8.70014 7.40734 8.94678L7.32749 9.02704Z" fill="white"/>
<path d="M6.37277 9.02704C6.61817 9.27369 7.01605 9.27369 7.26145 9.02704L12.9449 3.31472C13.1903 3.06807 13.1903 2.66818 12.9449 2.42153L12.8651 2.34128C12.6197 2.09463 12.2218 2.09463 11.9764 2.34128L6.29292 8.0536C6.04752 8.30024 6.04752 8.70014 6.29292 8.94678L6.37277 9.02704Z" fill="white"/>
</g>
</svg>
