<svg width="14" height="16" viewBox="0 0 14 16" fill="none" xmlns="http://www.w3.org/2000/svg">
<path fill-rule="evenodd" clip-rule="evenodd" d="M11.7098 6.3147H2.29999V14.9999H11.7098L11.7098 6.3147ZM2.29999 5.3147C1.7477 5.3147 1.29999 5.76241 1.29999 6.3147V14.9999C1.29999 15.5522 1.7477 15.9999 2.29999 15.9999H11.7098C12.2621 15.9999 12.7098 15.5522 12.7098 14.9999V6.3147C12.7098 5.76241 12.2621 5.3147 11.7098 5.3147H2.29999ZM4.41175 8.50463C4.41175 8.2182 4.64395 7.986 4.93038 7.986C5.21681 7.986 5.44901 8.2182 5.44901 8.50463V12.81C5.44901 13.0964 5.21681 13.3286 4.93038 13.3286C4.64395 13.3286 4.41175 13.0964 4.41175 12.81V8.50463ZM9.0794 7.986C8.79297 7.986 8.56077 8.2182 8.56077 8.50463V12.81C8.56077 13.0964 8.79297 13.3286 9.0794 13.3286C9.36583 13.3286 9.59803 13.0964 9.59803 12.81V8.50463C9.59803 8.2182 9.36583 7.986 9.0794 7.986Z" fill="white"/>
<path fill-rule="evenodd" clip-rule="evenodd" d="M3.86896 1.42231L10.978 2.40234L10.5962 4.09525L9.54667 3.95057L3.49647 3.0739L3.86896 1.42231ZM2.50668 2.93048L2.87764 1.28565C2.99927 0.746354 3.5417 0.370352 4.08919 0.445828L11.1982 1.42586C11.7457 1.50134 12.0909 1.99971 11.9693 2.539L11.5875 4.23191C11.5865 4.23656 11.5854 4.2412 11.5843 4.24582L13.2027 4.48033C13.4729 4.51948 13.6455 4.76764 13.5882 5.0346C13.531 5.30157 13.2655 5.48625 12.9953 5.4471L10.4609 5.07987C10.4327 5.07834 10.4043 5.07565 10.376 5.07174L3.26693 4.0917C3.15192 4.07585 3.04584 4.04133 2.95114 3.9917L0.721598 3.66864C0.451414 3.62949 0.278822 3.38134 0.336105 3.11437C0.393388 2.84741 0.658852 2.66273 0.929037 2.70188L2.50668 2.93048Z" fill="white"/>
</svg>
