<svg width="14" height="16" viewBox="0 0 14 16" fill="none" xmlns="http://www.w3.org/2000/svg">
<path fill-rule="evenodd" clip-rule="evenodd" d="M11.7098 6.31479H2.29999V15H11.7098L11.7098 6.31479ZM2.29999 5.31479C1.7477 5.31479 1.29999 5.7625 1.29999 6.31479V15C1.29999 15.5523 1.7477 16 2.29999 16H11.7098C12.2621 16 12.7098 15.5523 12.7098 15V6.31479C12.7098 5.7625 12.2621 5.31479 11.7098 5.31479H2.29999ZM4.41175 8.50472C4.41175 8.21829 4.64395 7.98609 4.93038 7.98609C5.21681 7.98609 5.44901 8.21829 5.44901 8.50472V12.8101C5.44901 13.0965 5.21681 13.3287 4.93038 13.3287C4.64395 13.3287 4.41175 13.0965 4.41175 12.8101V8.50472ZM9.0794 7.98609C8.79297 7.98609 8.56077 8.21829 8.56077 8.50472V12.8101C8.56077 13.0965 8.79297 13.3287 9.0794 13.3287C9.36583 13.3287 9.59803 13.0965 9.59803 12.8101V8.50472C9.59803 8.21829 9.36583 7.98609 9.0794 7.98609Z" fill="#979797"/>
<path fill-rule="evenodd" clip-rule="evenodd" d="M3.86896 1.4224L10.978 2.40243L10.5962 4.09535L9.54668 3.95066L3.49647 3.07399L3.86896 1.4224ZM2.50668 2.93057L2.87764 1.28574C2.99927 0.746445 3.5417 0.370444 4.08919 0.445919L11.1982 1.42595C11.7457 1.50143 12.0909 1.9998 11.9693 2.5391L11.5875 4.23201C11.5865 4.23665 11.5854 4.24129 11.5843 4.24591L13.2027 4.48043C13.4729 4.51958 13.6455 4.76773 13.5882 5.0347C13.531 5.30166 13.2655 5.48634 12.9953 5.44719L10.4609 5.07996C10.4327 5.07844 10.4043 5.07574 10.376 5.07183L3.26693 4.09179C3.15192 4.07594 3.04584 4.04143 2.95114 3.99179L0.721598 3.66873C0.451414 3.62958 0.278822 3.38143 0.336105 3.11446C0.393388 2.8475 0.658852 2.66282 0.929037 2.70197L2.50668 2.93057Z" fill="#979797"/>
</svg>
