<svg width="14" height="16" viewBox="0 0 14 16" fill="none" xmlns="http://www.w3.org/2000/svg">
<path d="M6.99998 0C3.14018 0 0 2.90665 0 6.47945C0 7.95365 0.521941 9.34205 1.50942 10.4946C2.78802 11.9868 6.50612 15.5299 6.66385 15.6799L6.99998 16L7.33615 15.68C7.49383 15.5299 11.2131 11.986 12.4919 10.4933C13.4785 9.3417 14 7.95374 14 6.47945C14 2.90665 10.8598 0 6.99998 0ZM11.7573 9.95394C10.7278 11.1556 7.96317 13.8286 7.00002 14.7531C6.03697 13.8286 3.27339 11.1564 2.24413 9.9552C1.38939 8.9577 0.937731 7.75583 0.937731 6.47945C0.937731 3.38526 3.65725 0.867994 6.99998 0.867994C10.3427 0.867994 13.0623 3.38526 13.0623 6.47945C13.0623 7.75588 12.611 8.95735 11.7573 9.95394Z" fill="#979797"/>
<path d="M6.99975 2.57205C4.71502 2.57205 2.8562 4.29263 2.8562 6.40746C2.8562 8.52228 4.71497 10.2429 6.99975 10.2429C9.28454 10.2429 11.1433 8.52233 11.1433 6.40746C11.1434 4.29259 9.28454 2.57205 6.99975 2.57205ZM6.99975 9.37487C5.23208 9.37487 3.79393 8.04372 3.79393 6.40746C3.79393 4.7712 5.23204 3.44005 6.99975 3.44005C8.76747 3.44005 10.2056 4.7712 10.2056 6.40746C10.2056 8.04367 8.76742 9.37487 6.99975 9.37487Z" fill="#979797"/>
<path d="M6.82819 6.69768L5.65077 5.83056L5.06689 6.50985L6.97471 7.91474L9.00645 5.57402L8.27534 5.0304L6.82819 6.69768Z" fill="#979797"/>
</svg>
