<svg width="16" height="18" viewBox="0 0 16 18" fill="none" xmlns="http://www.w3.org/2000/svg">
<g opacity="0.9">
<path d="M3.96387 9.43666C3.635 9.10946 3.635 8.57896 3.96387 8.25176L11.5803 0.673801C11.9092 0.346599 12.4423 0.346599 12.7712 0.673801L12.8782 0.780268C13.2071 1.10747 13.2071 1.63797 12.8782 1.96517L5.26179 9.54313C4.93293 9.87033 4.39974 9.87033 4.07087 9.54313L3.96387 9.43666Z" fill="#252525"/>
<path d="M3.96387 8.16368C3.635 8.49088 3.635 9.02138 3.96387 9.34858L11.5803 16.9265C11.9092 17.2537 12.4423 17.2537 12.7712 16.9265L12.8782 16.8201C13.2071 16.4929 13.2071 15.9624 12.8782 15.6352L5.26179 8.05722C4.93293 7.73001 4.39974 7.73001 4.07087 8.05722L3.96387 8.16368Z" fill="#252525"/>
</g>
</svg>
