<svg width="150" height="150" viewBox="0 0 150 150" fill="none" xmlns="http://www.w3.org/2000/svg">
<rect x="52" y="24" width="58" height="58" fill="#F5F5F5"/>
<path fill-rule="evenodd" clip-rule="evenodd" d="M111 72.0123C110.667 72.0041 110.334 72 110 72C89.2584 72 72.2042 87.7867 70.1973 108H72.2078C74.2066 88.8933 90.3639 74 110 74C110.334 74 110.667 74.0043 111 74.0129V72.0123Z" fill="#575757"/>
<circle cx="47.5" cy="87.5" r="25.5" fill="#D5D5D5"/>
<rect x="40.5002" y="40.4999" width="43" height="43" stroke="#BABABA" stroke-width="3"/>
<rect x="37" y="37" width="6" height="6" fill="white" stroke="#BABABA" stroke-width="2"/>
<rect x="81.0002" y="37" width="6" height="6" fill="white" stroke="#BABABA" stroke-width="2"/>
<rect x="37" y="80.9999" width="6" height="6" fill="white" stroke="#BABABA" stroke-width="2"/>
<rect x="81.0002" y="80.9999" width="6" height="6" fill="white" stroke="#575757" stroke-width="2"/>
<path d="M100.856 107.476C100.331 106.688 100.441 105.643 101.111 104.973L106.754 99.3294C107.392 98.6916 108.375 98.5594 109.151 99.0199C111.688 100.526 117.399 104.02 121.898 107.52C123.869 109.053 125.288 110.521 126.16 111.523C126.794 112.251 126.705 113.319 126.022 114.003L115.763 124.262C115.221 124.804 114.432 124.94 113.836 124.457C112.989 123.771 111.6 122.429 109.573 119.845C106.735 116.223 102.646 110.163 100.856 107.476Z" fill="#CACACA"/>
<path d="M86.8131 87.9441C86.4491 86.4808 87.7736 85.1563 89.2369 85.5204L100.977 88.4413C101.624 88.6023 102.149 89.0753 102.375 89.7026L105.66 98.7959C105.924 99.5253 105.742 100.341 105.194 100.89L102.183 103.901C101.634 104.449 100.818 104.631 100.089 104.368L90.9953 101.082C90.3681 100.856 89.8951 100.331 89.7341 99.6842L86.8131 87.9441Z" fill="#ABABAB"/>
<circle cx="94.8493" cy="93.5565" r="2.5" transform="rotate(-45 94.8493 93.5565)" fill="white"/>
<rect x="86.364" y="85.7783" width="1" height="9" transform="rotate(-45 86.364 85.7783)" fill="white"/>
<path fill-rule="evenodd" clip-rule="evenodd" d="M111.024 121.615C110.582 121.102 110.099 120.515 109.573 119.844C109.084 119.22 108.558 118.524 108.013 117.786C110.271 116.488 112.537 114.759 114.648 112.648C116.776 110.52 118.516 108.234 119.817 105.959C120.528 106.475 121.227 106.997 121.898 107.519C122.537 108.017 123.118 108.507 123.641 108.977C122.313 111.421 120.474 113.894 118.184 116.184C115.909 118.459 113.453 120.289 111.024 121.615Z" fill="#AFAFAF"/>
<circle cx="113" cy="73" r="3" stroke="#575757" stroke-width="2"/>
<circle cx="71" cy="111" r="3" stroke="#575757" stroke-width="2"/>
</svg>
