<svg width="150" height="150" viewBox="0 0 150 150" fill="none" xmlns="http://www.w3.org/2000/svg">
<path d="M39.2602 93.8211C42.527 87.9387 48.9244 87.9387 48.9244 87.9387L59.4286 99.7034C59.4286 99.7034 57.747 108.527 46.4034 109.367C46.8236 108.527 46.8236 106.426 46.8236 106.426C46.8236 106.426 42.2009 109.367 37.1597 109.367C35.8984 103.485 37.1602 97.6026 39.2602 93.8211Z" fill="#CACACA" stroke="#CACACA" stroke-linecap="round" stroke-linejoin="round"/>
<path d="M79.5236 81.1124C81.8458 80.3703 84.0366 82.5611 83.2945 84.8833L77.3539 103.472C76.67 105.612 73.9634 106.268 72.3749 104.68L59.7271 92.032C58.1386 90.4435 58.7953 87.7369 60.9352 87.0531L79.5236 81.1124Z" fill="#ABABAB"/>
<path d="M63.4802 65.0688C65.8024 64.3267 67.9932 66.5175 67.251 68.8397L61.3104 87.4281C60.6265 89.568 57.9199 90.2247 56.3315 88.6362L43.6837 75.9884C42.0952 74.3999 42.7519 71.6933 44.8917 71.0095L63.4802 65.0688Z" fill="#ABABAB"/>
<rect x="45.551" y="86.1747" width="5.88235" height="21.0084" rx="2.94118" transform="rotate(-45 45.551 86.1747)" fill="#575757"/>
<path d="M54.147 80.5098C53.5887 79.9515 53.275 79.1962 53.3755 78.413C53.8116 75.0129 56.1506 64.8792 68.6905 52.3393C84.1744 36.8554 102.001 33.2902 107.646 38.9352C113.291 44.5801 109.725 61.8121 93.9443 77.5931C81.3201 90.2173 71.8041 92.8886 68.5022 93.4522C67.6964 93.5897 66.9127 93.2755 66.3347 92.6975L54.147 80.5098Z" fill="#F5F5F5"/>
<path fill-rule="evenodd" clip-rule="evenodd" d="M108.561 55.2992C111.026 47.9344 110.58 41.8692 107.646 38.9349C104.735 36.0235 98.5829 35.562 91.1836 37.9219L108.561 55.2992Z" fill="#BABABA"/>
<path d="M69.272 73.5139C71.6173 72.7322 73.8485 74.9634 73.0667 77.3087L66.6947 96.4248C65.9894 98.5405 63.3042 99.1744 61.7273 97.5975L48.9832 84.8534C47.4062 83.2764 48.0401 80.5912 50.1558 79.886L69.272 73.5139Z" fill="#BABABA"/>
<circle cx="84.7686" cy="60.6237" r="8.82353" transform="rotate(-45 84.7686 60.6237)" fill="#E0E0E0"/>
<circle cx="84.7685" cy="60.6237" r="7.14286" transform="rotate(-45 84.7685 60.6237)" fill="#AFAFAF"/>
<path d="M104 109.5C104 113.642 103 117 103 117C103 117 102 113.642 102 109.5C102 105.358 103 102 103 102C103 102 104 105.358 104 109.5Z" fill="#D5D5D5"/>
<path d="M103 110.5C98.8579 110.5 95.5 109.5 95.5 109.5C95.5 109.5 98.8579 108.5 103 108.5C107.142 108.5 110.5 109.5 110.5 109.5C110.5 109.5 107.142 110.5 103 110.5Z" fill="#D5D5D5"/>
<path d="M41.8 42C41.8 45.3137 41 48 41 48C41 48 40.2 45.3137 40.2 42C40.2 38.6863 41 36 41 36C41 36 41.8 38.6863 41.8 42Z" fill="#E0E0E0"/>
<path d="M41 42.8C37.6863 42.8 35 42 35 42C35 42 37.6863 41.2 41 41.2C44.3137 41.2 47 42 47 42C47 42 44.3137 42.8 41 42.8Z" fill="#E0E0E0"/>
<path d="M118.533 99C118.533 101.209 118 103 118 103C118 103 117.467 101.209 117.467 99C117.467 96.7909 118 95 118 95C118 95 118.533 96.7909 118.533 99Z" fill="#E0E0E0"/>
<path d="M118 99.5335C115.791 99.5335 114 99.0001 114 99.0001C114 99.0001 115.791 98.4668 118 98.4668C120.209 98.4668 122 99.0001 122 99.0001C122 99.0001 120.209 99.5335 118 99.5335Z" fill="#E0E0E0"/>
<path d="M27.5335 80C27.5335 82.2091 27.0001 84 27.0001 84C27.0001 84 26.4668 82.2091 26.4668 80C26.4668 77.7909 27.0001 76 27.0001 76C27.0001 76 27.5335 77.7909 27.5335 80Z" fill="#E0E0E0"/>
<path d="M27 80.5335C24.7909 80.5335 23 80.0001 23 80.0001C23 80.0001 24.7909 79.4668 27 79.4668C29.2091 79.4668 31 80.0001 31 80.0001C31 80.0001 29.2091 80.5335 27 80.5335Z" fill="#E0E0E0"/>
<circle cx="110" cy="74" r="1" fill="#BABABA"/>
<circle cx="27" cy="80" r="1" fill="#D5D5D5"/>
<circle cx="65" cy="126" r="1" fill="#E0E0E0"/>
<circle cx="128" cy="62" r="1" fill="#E0E0E0"/>
<circle cx="86" cy="31" r="1" fill="#E0E0E0"/>
</svg>
