<svg width="150" height="150" viewBox="0 0 150 150" fill="none" xmlns="http://www.w3.org/2000/svg">
<path d="M43.3466 114.6C39.3992 115.972 35.6107 112.183 36.9824 108.236L55.7607 54.1978C56.9717 50.713 61.4105 49.6948 64.0192 52.3035L99.279 87.5633C101.888 90.172 100.87 94.6108 97.3847 95.8218L43.3466 114.6Z" fill="#B2A2F3"/>
<path d="M100.414 93.5937C95.142 98.8658 81.3706 93.6422 69.6549 81.9265C57.9392 70.2108 52.7156 56.4394 57.9876 51.1673C63.2597 45.8953 77.031 51.1189 88.7468 62.8346C100.463 74.5503 105.686 88.3217 100.414 93.5937Z" fill="#281679"/>
<path fill-rule="evenodd" clip-rule="evenodd" d="M83.2073 100.748L72.639 104.421C67.8912 102.074 62.7685 98.3747 57.9881 93.5943C53.2077 88.8139 49.5082 83.6912 47.1615 78.9434L50.834 68.3751C52.6601 74.3313 57.1571 81.4496 63.645 87.9375C70.1328 94.4253 77.2511 98.9223 83.2073 100.748Z" fill="#9B87EF"/>
<path fill-rule="evenodd" clip-rule="evenodd" d="M64.1076 107.384L54.8306 110.608C52.3216 108.774 49.8071 106.626 47.3807 104.2C44.9543 101.773 42.8064 99.2589 40.9725 96.75L44.1963 87.4729C46.4537 91.153 49.4395 94.945 53.0375 98.543C56.6356 102.141 60.4275 105.127 64.1076 107.384Z" fill="#9B87EF"/>
<path fill-rule="evenodd" clip-rule="evenodd" d="M103.912 28.4702C105.567 28.3949 106.97 29.6756 107.045 31.3307C107.607 43.6841 104.275 51.4812 99.0931 55.3562C99.0823 55.3892 99.0714 55.4223 99.0604 55.4553C97.3873 60.4807 93.015 65.0968 86.9478 69.1814C85.5733 70.1067 83.7091 69.7426 82.7838 68.3682C81.8585 66.9938 82.2226 65.1295 83.597 64.2042C86.6294 62.1627 88.9272 60.1509 90.5665 58.2298C88.7664 58.2385 87.0252 57.9087 85.4563 57.3172C82.5393 56.2175 79.8892 54.071 78.7807 51.0826C76.9063 46.0294 78.4457 41.0327 82.0989 38.457C85.9013 35.7762 91.1028 36.307 95.1161 40.4809C96.8412 42.275 98.1051 44.1923 98.8826 46.1913C100.387 43.0627 101.361 38.4126 101.051 31.6035C100.976 29.9484 102.257 28.5455 103.912 28.4702ZM93.7798 51.5475C93.9416 49.3071 93.0829 47.0231 90.7911 44.6395C88.5252 42.283 86.5917 42.6307 85.5563 43.3608C84.3717 44.196 83.3706 46.204 84.4062 48.996C84.7528 49.9303 85.8014 51.0351 87.5729 51.703C89.2913 52.3508 91.3817 52.4529 93.3601 51.7177C93.4986 51.6662 93.6387 51.6096 93.7798 51.5475Z" fill="#29C8D8"/>
<path d="M85.5648 27.8328C84.5885 28.8092 83.0055 28.8092 82.0292 27.8328C81.0529 26.8565 81.0529 25.2736 82.0292 24.2973C83.0055 23.321 84.5885 23.321 85.5648 24.2973C86.5411 25.2736 86.5411 26.8565 85.5648 27.8328Z" fill="#FF9B2A"/>
<path d="M114.91 88.9976C113.348 90.5597 110.815 90.5597 109.253 88.9976C107.691 87.4355 107.691 84.9029 109.253 83.3408C110.815 81.7787 113.348 81.7787 114.91 83.3408C116.472 84.9029 116.472 87.4355 114.91 88.9976Z" fill="#29C8D8"/>
<path d="M79.2009 73.7948C78.2246 74.7711 76.6416 74.7711 75.6653 73.7948C74.689 72.8185 74.689 71.2356 75.6653 70.2593C76.6416 69.283 78.2246 69.283 79.2009 70.2593C80.1772 71.2356 80.1772 72.8185 79.2009 73.7948Z" fill="#29C8D8"/>
<path d="M56.2199 41.6214C54.6578 43.1835 52.1251 43.1835 50.5631 41.6214C49.001 40.0593 49.001 37.5267 50.5631 35.9646C52.1251 34.4025 54.6578 34.4025 56.2199 35.9646C57.782 37.5267 57.782 40.0593 56.2199 41.6214Z" fill="#8871ED"/>
<path fill-rule="evenodd" clip-rule="evenodd" d="M119.509 55.7753C119.605 57.4294 118.342 58.848 116.688 58.9438C113.838 59.1088 111.263 60.473 109.113 62.3202C106.957 64.1728 105.437 66.3379 104.742 67.6586C103.971 69.125 102.157 69.6884 100.691 68.9171C99.2244 68.1458 98.6609 66.3318 99.4322 64.8654C100.452 62.9276 102.431 60.1512 105.203 57.7694C107.981 55.3821 111.763 53.2189 116.341 52.9538C117.995 52.858 119.413 54.1212 119.509 55.7753Z" fill="#FF9B2A"/>
<path fill-rule="evenodd" clip-rule="evenodd" d="M84.7641 92.9763C84.8575 92.8903 84.9466 92.7974 85.0306 92.6977C95.9 79.7907 108.55 74.6492 120.788 78.8951C122.354 79.4381 124.063 78.6094 124.606 77.0441C125.149 75.4788 124.32 73.7695 122.755 73.2265C107.274 67.8556 92.1996 74.8701 80.4412 88.8328C80.1025 89.235 79.8876 89.7002 79.7926 90.182C81.4773 91.2663 83.1441 92.2014 84.7641 92.9763Z" fill="#8871ED"/>
<path fill-rule="evenodd" clip-rule="evenodd" d="M64.315 75.8927C64.4677 75.7847 64.6124 75.6608 64.7467 75.521C68.0646 72.0704 72.0324 65.6227 73.8947 58.0347C75.7737 50.3784 75.5678 41.2723 70.0373 32.8977C69.1243 31.5151 67.2634 31.1344 65.8808 32.0474C64.4982 32.9605 64.1175 34.8215 65.0306 36.204C69.3997 42.82 69.6651 50.0952 68.0676 56.6046C66.5401 62.8285 63.3629 68.0898 60.8443 70.9061C61.8586 72.5553 63.019 74.2267 64.315 75.8927Z" fill="#FF9B2A"/>
</svg>
