<svg width="150" height="150" viewBox="0 0 150 150" fill="none" xmlns="http://www.w3.org/2000/svg">
<rect x="46" y="34" width="77" height="55" rx="3" fill="#E8E4F9"/>
<path d="M46 37C46 35.3431 47.3431 34 49 34H120C121.657 34 123 35.3431 123 37V46H46V37Z" fill="#8871ED"/>
<rect x="55" y="27" width="6" height="14" rx="3" fill="#B2A2F3"/>
<rect x="91" y="27" width="6" height="14" rx="3" fill="#B2A2F3"/>
<rect x="73" y="27" width="6" height="14" rx="3" fill="#B2A2F3"/>
<rect x="51" y="51" width="16" height="16" rx="2" fill="#D5CCF9"/>
<rect x="102" y="68" width="16" height="16" rx="2" fill="#D5CCF9"/>
<rect x="102" y="51" width="16" height="16" rx="2" fill="#D5CCF9"/>
<rect x="84" y="68" width="16" height="16" rx="2" fill="#D5CCF9"/>
<rect x="109" y="27" width="6" height="14" rx="3" fill="#B2A2F3"/>
<rect x="51" y="55" width="41" height="4" rx="1" fill="#29C8D8"/>
<rect x="102" y="72" width="16" height="4" rx="1" fill="#29C8D8"/>
<rect x="68" y="59" width="50" height="4" rx="1" fill="#FF6E6E"/>
<rect x="68" y="72" width="32" height="4" rx="1" fill="#FF9B2A"/>
<path d="M21.8 94.4817C24.0501 89.7409 30.2466 85.0266 37.9999 85.0001C45.8118 84.9734 51.95 89.7409 54.2 94.4817C55.7013 97.6449 56 100.085 56 100.085C56 100.085 48.8 106 37.9999 106C27.1999 106 20 100.085 20 100.085C20 100.085 20.3896 97.4533 21.8 94.4817Z" fill="#281679"/>
<circle cx="37.5" cy="74.5" r="9.5" fill="#281679"/>
<path d="M57.75 102.482C59.9376 97.7409 65.962 93.0266 73.4999 93.0001C81.0948 92.9734 87.0625 97.7409 89.25 102.482C90.7096 105.645 91 108.085 91 108.085C91 108.085 84 114 73.4999 114C62.9999 114 56 108.085 56 108.085C56 108.085 56.3788 105.453 57.75 102.482Z" fill="#9B87EF"/>
<circle cx="73.5" cy="82.5" r="9.5" fill="#9B87EF"/>
<path d="M38.7 114.482C40.8251 109.741 46.6774 105.027 54 105C61.3778 104.973 67.175 109.741 69.3 114.482C70.7179 117.645 71 120.085 71 120.085C71 120.085 64.2 126 54 126C43.7999 126 37 120.085 37 120.085C37 120.085 37.368 117.453 38.7 114.482Z" fill="#6F52ED"/>
<circle cx="53.5" cy="94.5" r="9.5" fill="#6F52ED"/>
</svg>
