<svg width="616" height="518" viewBox="0 0 616 518" fill="none" xmlns="http://www.w3.org/2000/svg">
<path d="M117.123 163.103C77.6397 180.153 33.8218 229.697 41.0003 262C76.7297 422.784 288.57 443.711 394.394 392.818C485.498 349.004 453.407 178.091 435.472 128.341C417.537 78.5905 356.707 6.00249 290.401 42.5704C260.592 59.0097 251.498 102.923 231.497 128.341C211.496 153.759 160.518 144.365 117.123 163.103Z" fill="#6F52ED" fill-opacity="0.2"/>
<path d="M546 192C528.39 159.304 389 164.353 323 220C272 263 229.723 281.603 213 368C201 430 277.403 454.562 323 486C368.597 517.438 551.913 474.799 581 430C590.761 414.967 614 383 592 354C562.376 314.951 568.012 232.869 546 192Z" fill="#FF9B2A" fill-opacity="0.2"/>
<path d="M496.5 184.225C482.5 194.625 467.667 224.225 462 237.725C464.667 240.892 471.7 246.925 478.5 245.725C487 244.225 510.5 222.725 524 214.225C537.5 205.725 548.5 173.225 543.5 169.225C538.5 165.225 514 171.225 496.5 184.225Z" fill="#8871ED"/>
<path d="M86.1963 355.432C98.0078 368.264 129.001 379.909 143.021 384.128C145.89 381.144 151.152 373.517 149.245 366.88C146.862 358.584 123.015 337.47 113.145 324.936C103.276 312.403 69.8008 304.874 66.3475 310.266C62.8942 315.658 71.4318 339.393 86.1963 355.432Z" fill="#543EB6"/>
<path d="M58.5001 411C71.3983 422.739 97.9956 429.649 112.333 432.614C114.928 429.388 119.496 421.325 117.011 414.883C113.904 406.83 88.2862 387.904 77.3487 376.29C66.4111 364.677 25 376.29 21.9998 389C20.5286 395.232 42.3773 396.327 58.5001 411Z" fill="#8871ED"/>
<path d="M512.304 216.273C502.019 221.401 487.816 237.945 482 245.576V317C492.101 312.727 514.141 301.616 521.487 291.36C530.671 278.541 531.39 255.22 544.445 245.576C563.5 231.5 574.75 232.756 585.769 205.285C600.526 168.5 570.5 176.901 557.302 185.14C537.5 197.5 534.344 205.285 512.304 216.273Z" fill="#B2A2F3"/>
<path d="M577.5 192C565.167 204.667 539 230 533 234.5C523.204 241.847 509.833 260.667 502 271.5" stroke="#8871ED"/>
<path d="M563.5 206C563.5 206 565 199 563.5 192" stroke="#8871ED"/>
<path d="M538 230C538 230 539 219.5 538 211" stroke="#8871ED"/>
<path d="M558 211.5C558.5 209.5 559 204.5 558 198.5M552 217C552 217 563 215.5 569.5 217" stroke="#8871ED"/>
<path d="M526 241C526 239.4 528.5 227.5 526 214.5M520.5 247C520.5 247 531.5 245 537.5 247" stroke="#8871ED"/>
<path d="M81.6081 387.374C88.6183 396.481 107.585 407.238 116.191 411.478L186.282 397.742C180.146 388.651 165.005 369.16 153.527 363.923C139.181 357.376 116.157 361.155 104.182 350.198C86.7047 334.206 80.0775 328.531 51.0001 323C10 315.201 25.8679 353.998 42.0002 360C63.5006 368 66.5864 367.859 81.6081 387.374Z" fill="#B2A2F3"/>
<path d="M42.4997 334.5C56.2616 338.295 86.8984 354.94 97.5 364.5C107.5 373.517 125.648 381.262 137.786 386.866" stroke="#8871ED"/>
<path d="M56.5 340C56.5 340 49.7088 340.528 43.1279 343.347" stroke="#8871ED"/>
<path d="M90.5 359.5C90.5 359.5 78.5 359.5 71.491 363.172" stroke="#8871ED"/>
<path d="M65.9683 344.343C63.9094 344.237 58.9066 344.708 53.2109 346.843M72.4991 348C72.4991 348 68.932 338.667 69.154 332" stroke="#8871ED"/>
<path d="M103.239 369.179C101.669 369.487 89.5099 369.322 77.2333 374.276M110.184 373.423C110.184 373.423 106.106 363.013 106.915 356.74" stroke="#8871ED"/>
<path d="M556.408 392.855C545.851 390.05 537.198 395.188 534.192 398.107C533.761 399.727 535.188 403.874 544.339 407.495C555.778 412.022 563.689 407.431 565.122 404.837C566.555 402.244 567.521 395.808 556.408 392.855Z" fill="#9B87EF"/>
<path d="M554.863 359.051C546.192 365.696 544.974 375.684 545.448 379.847C546.468 381.178 550.623 382.582 559.08 377.549C569.652 371.258 570.851 362.191 569.673 359.472C568.494 356.753 563.989 352.057 554.863 359.051Z" fill="#FF6E6E"/>
<path d="M537.758 426.57C526.839 426.252 520.008 418.864 517.957 415.21C518.006 413.533 520.554 409.965 530.358 409.099C542.612 408.018 548.889 414.671 549.523 417.565C550.158 420.46 549.251 426.904 537.758 426.57Z" fill="#FFA2A2"/>
<path d="M531.39 372.587C534.748 382.982 530.074 391.893 527.317 395.049C525.721 395.565 521.505 394.359 517.407 385.411C512.284 374.226 516.451 366.084 518.966 364.517C521.48 362.949 527.856 361.646 531.39 372.587Z" fill="#9B87EF"/>
<path d="M512.086 397.712C516.731 404.758 515.09 412.356 513.689 415.274C512.607 415.987 509.22 415.959 504.323 410.144C498.201 402.874 499.623 395.953 501.172 394.268C502.72 392.582 507.198 390.296 512.086 397.712Z" fill="#B2A2F3"/>
<path d="M562.4 364.704C549.742 375.965 522.603 401.423 515.318 413.17C508.033 424.916 505.321 433.07 504.876 435.678" stroke="#6F52ED"/>
<path d="M523.753 373.025C524.838 378.271 526.908 390.818 526.508 399.04" stroke="#6F52ED"/>
<path d="M555.768 400.865C548.59 398.958 532.69 395.923 526.508 399.04" stroke="#6F52ED"/>
<path d="M539.487 417.36C533.189 414.944 520.039 412.193 513.701 416.458" stroke="#6F52ED"/>
<path d="M458.241 168.549C448.646 169.165 442.865 175.875 441.174 179.153C441.269 180.626 443.62 183.686 452.271 184.145C463.083 184.719 468.399 178.673 468.868 176.107C469.337 173.541 468.341 167.901 458.241 168.549Z" fill="#D5CCF9"/>
<path d="M445.813 142.588C439.707 151.646 441.73 161.503 443.505 165.299C444.895 166.236 449.28 166.245 455.697 158.783C463.718 149.455 461.969 140.478 459.987 138.275C458.005 136.072 452.24 133.053 445.813 142.588Z" fill="#FFA1A1"/>
<path d="M453.064 147.89C444.647 162.593 432.681 185.966 429.512 199.42C426.343 212.874 426.367 221.466 426.774 224.081" stroke="#6F52ED"/>
<path d="M458.566 175.889C453.066 175.89 440.494 177.542 435.625 182.464" stroke="#6F52ED"/>
<path d="M118.695 155.533C129.619 155.533 136.662 162.72 138.818 166.313C138.818 167.99 136.374 171.631 126.6 172.781C114.382 174.219 107.915 167.751 107.196 164.876C106.478 162.001 107.197 155.533 118.695 155.533Z" fill="#FF6E6E"/>
<path d="M128.869 123.259C135.543 131.907 134.156 141.874 132.628 145.776C131.301 146.8 126.925 147.09 120.043 140.054C111.441 131.26 112.611 122.188 114.448 119.863C116.285 117.538 121.845 114.156 128.869 123.259Z" fill="#B2A2F3"/>
<path d="M128.062 192.906C138.697 195.403 147.196 190.017 150.116 187.011C150.5 185.379 148.953 181.275 139.7 177.922C128.135 173.73 120.36 178.548 119.004 181.182C117.647 183.817 116.868 190.278 128.062 192.906Z" fill="#B2A2F3"/>
<path d="M148.078 142.369C142.164 151.553 144.394 161.366 146.248 165.124C147.657 166.032 152.042 165.949 158.3 158.353C166.124 148.859 164.187 139.92 162.159 137.759C160.131 135.599 154.304 132.702 148.078 142.369Z" fill="#9B87EF"/>
<path d="M160.283 171.608C153.985 177.225 153.62 184.989 154.225 188.17C155.087 189.136 158.368 189.979 164.594 185.616C172.377 180.163 172.78 173.109 171.716 171.082C170.652 169.055 166.912 165.696 160.283 171.608Z" fill="#B2A2F3"/>
<path d="M120.133 126.787C129.476 140.92 149.167 172.494 153.192 185.717C157.216 198.941 157.743 207.517 157.504 210.152" stroke="#6F52ED"/>
<path d="M155.348 144.753C152.952 149.545 147.73 161.139 146.005 169.188" stroke="#6F52ED"/>
<path d="M117.258 163.438C124.684 163.438 140.83 164.588 146.005 169.188" stroke="#6F52ED"/>
<path d="M128.757 183.562C135.464 182.843 148.88 183.562 153.91 189.311" stroke="#6F52ED"/>
<path d="M348.5 183.5C346.5 182.7 335.667 179.333 330.5 177V199H348.5C351.5 197 358.5 200.5 358.5 191C358.5 187.5 351 184.5 348.5 183.5Z" fill="#8871ED"/>
<path d="M264.864 109.351C272.615 108.243 285.5 109.351 289.779 118.7L297 130.7C295.154 133.933 282.858 136.23 277.321 138.446C270.4 141.217 275 155.167 283 160.5C293.5 167.5 305.463 180.301 311 190C316.537 199.699 296.699 234.046 289.779 240.974C282.858 247.901 264.864 254.829 256.559 257.6C248.253 260.371 217.803 261.756 212.266 242.359C206.729 222.962 220.571 216.035 230.259 210.493C239.948 204.951 235.796 191.096 234.412 184.168C233.028 177.241 227.491 159.229 230.259 146.759C233.028 134.29 255.174 110.736 264.864 109.351Z" fill="#FF6E6E"/>
<path d="M297.999 169C293.151 170.322 285 174 276.5 180.5C272.5 185 255.998 215.5 256.498 223C256.998 230.5 276.498 228.5 290.498 231.5C301.698 233.9 329.165 230.5 341.498 228.5L341.491 228.27C340.99 212.231 340.116 184.242 335.999 180.5C330.499 175.5 321.999 173 315.999 170C309.999 167 303.499 167.5 297.999 169Z" fill="#8871ED"/>
<path d="M355.258 126.96C350.918 133.043 350.345 142.908 350.602 147.08L362.434 154.043C367.916 150.184 379.607 141.347 382.512 136.871C385.416 132.394 385.402 115.754 385.032 107.993C382.626 111.197 377.232 118.032 374.908 119.741C372.003 121.876 360.683 119.356 355.258 126.96Z" fill="#E8E4F9"/>
<path fill-rule="evenodd" clip-rule="evenodd" d="M362.852 121.963C363.801 122.399 364.69 122.984 365.467 123.756C368.144 126.409 369.115 128.886 369.933 130.973C370.669 132.849 371.282 134.411 372.9 135.503C374.42 136.529 377.302 138.156 380.315 139.514C381.255 138.536 382.013 137.639 382.512 136.87C385.417 132.394 385.402 115.753 385.032 107.993C382.626 111.197 377.232 118.032 374.908 119.74C373.925 120.463 371.977 120.653 369.62 120.882C367.554 121.083 365.173 121.315 362.852 121.963Z" fill="#8871ED"/>
<path d="M347.924 145.545C348.227 145.084 348.848 144.956 349.309 145.26L361 152.962C361.461 153.265 361.589 153.886 361.285 154.347L283.828 271.931C282.612 273.775 280.132 274.286 278.287 273.071L271.606 268.67C269.761 267.454 269.251 264.974 270.466 263.129L347.924 145.545Z" fill="#6F52ED"/>
<path d="M116 207C116 198.716 122.716 192 131 192H499C507.284 192 514 198.716 514 207V435H116V207Z" fill="#281679"/>
<ellipse cx="309" cy="463.5" rx="262" ry="16.5" fill="#D5CCF9"/>
<path d="M139 224C139 218.477 143.477 214 149 214H481C486.523 214 491 218.477 491 224V429H139V224Z" fill="#E8E4F9"/>
<path d="M77 429H552V433C552 449.569 538.569 463 522 463H107C90.4315 463 77 449.569 77 433V429Z" fill="#190C52"/>
<path d="M139 224C139 218.477 143.477 214 149 214H481C486.523 214 491 218.477 491 224V235H139V224Z" fill="#8871ED"/>
<circle cx="477.5" cy="224.5" r="4.5" fill="#FF6E6E"/>
<circle cx="462.5" cy="224.5" r="4.5" fill="#B2A2F3"/>
<circle cx="447.5" cy="224.5" r="4.5" fill="#B2A2F3"/>
<rect x="267" y="273" width="210" height="145" rx="15" fill="#D5CCF9"/>
<rect x="267" y="246" width="210" height="17" rx="4" fill="#D5CCF9"/>
<rect x="147" y="246" width="104" height="87" rx="4" fill="#D5CCF9"/>
<rect x="147" y="344" width="104" height="5" rx="2.5" fill="#D5CCF9"/>
<rect x="147" y="377" width="104" height="5" rx="2.5" fill="#D5CCF9"/>
<rect x="147" y="355" width="104" height="5" rx="2.5" fill="#D5CCF9"/>
<rect x="147" y="388" width="104" height="5" rx="2.5" fill="#D5CCF9"/>
<rect x="147" y="366" width="104" height="5" rx="2.5" fill="#D5CCF9"/>
<path d="M273.912 338.003C270.831 334.189 267.769 335.086 266.624 336.012C259.751 341.564 243.641 353.679 234.183 357.718C222.36 362.767 200.456 354.386 195.409 351.901C188.5 348.5 183.444 341.308 172.173 352.664C160.902 364.02 176.443 376.227 181.118 379.203C185.794 382.178 226.628 380.704 232.402 379.415C237.022 378.385 262.277 356.406 274.327 345.546C275.472 344.621 276.993 341.817 273.912 338.003Z" fill="#FF951D"/>
<rect x="147" y="399" width="104" height="5" rx="2.5" fill="#D5CCF9"/>
<path fill-rule="evenodd" clip-rule="evenodd" d="M27 232C22.5817 232 19 235.582 19 240V289C19 293.418 22.5817 297 27 297H78L86 305V296.748C89.4505 295.86 92 292.728 92 289V240C92 235.582 88.4183 232 84 232H27Z" fill="#8871ED"/>
<path fill-rule="evenodd" clip-rule="evenodd" d="M176 38C171.582 38 168 41.5817 168 46V94C168 98.4183 171.582 102 176 102H226L234 110V101.748C237.45 100.86 240 97.7277 240 94V46C240 41.5817 236.418 38 232 38H176Z" fill="#8871ED"/>
<path fill-rule="evenodd" clip-rule="evenodd" d="M538 255C533.582 255 530 258.582 530 263V324C530 328.418 533.582 332 538 332L538 340L546 332H608C612.418 332 616 328.418 616 324V263C616 258.582 612.418 255 608 255H538Z" fill="#8871ED"/>
<path d="M276.5 126.2C274.734 129.437 275.5 133.033 276.5 134.7C277.833 135.2 280.5 135.9 280.5 134.7C280.5 133.2 282 130.7 285 126.2C287.4 122.6 290.666 120.033 292 119.2C285 117.699 281.136 117.7 276.5 126.2Z" fill="#4F37BD"/>
<path d="M311 171.5V166L300.5 165L301.5 171.5C302.833 172.667 305.9 175 307.5 175C309.1 175 310.5 172.667 311 171.5Z" fill="#FECBBB"/>
<path d="M304.956 201.859L306.443 206.788C316.802 206.994 339.31 207.182 346.465 206.283C355.408 205.158 360.189 194.94 358.872 191.584C357.556 188.227 351.905 185.975 344.534 186.93C338.637 187.694 315.692 197.201 304.956 201.859Z" fill="#9E89F4"/>
<path d="M295.348 176.483L292.462 172.22C282.511 175.107 260.968 181.629 254.405 184.618C246.202 188.354 244.68 199.532 246.937 202.344C249.193 205.156 255.258 205.624 262.01 202.518C267.413 200.033 286.487 184.126 295.348 176.483Z" fill="#9E89F4"/>
<ellipse cx="299.219" cy="207.563" rx="2.5" ry="7.29126" transform="rotate(50.556 299.219 207.563)" fill="#FFDBD0"/>
<ellipse cx="379.412" cy="254.556" rx="3.80607" ry="7.29126" transform="rotate(143.248 379.412 254.556)" fill="#FFDBD0"/>
<ellipse cx="386.767" cy="362.825" rx="3.80607" ry="7.29126" transform="rotate(98.3577 386.767 362.825)" fill="#FFDBD0"/>
<ellipse cx="280.847" cy="332.847" rx="3.80607" ry="7.29126" transform="rotate(45 280.847 332.847)" fill="#FFDBD0"/>
<path d="M314.5 167.2C321.137 164.957 322.101 143.931 319.335 135.987C314.265 133.651 301.912 129.258 293.062 130.38C284.212 131.501 280.5 140.86 280.5 146C284.648 152.075 283.5 162 297 167.2C302.325 169.251 306.203 170.003 314.5 167.2Z" fill="#FFDBD0"/>
<path d="M311.505 145.2C305.172 146.533 291.105 149 285.505 148.2V156.2C280.5 148.2 279.5 149.7 277 145.2C274.5 140.7 276.495 132.699 282.5 124.7C285.082 121.26 295.006 114.2 307.006 115.7C319.006 117.2 319.505 125.2 319.505 131.2C324.305 133.6 323.172 141.533 322.005 145.2H316.505C314.839 141.866 311.505 135.4 311.505 136.2V145.2Z" fill="#FF6E6E"/>
<ellipse cx="294.897" cy="167.642" rx="2.5" ry="7.29126" transform="rotate(-11.4427 294.897 167.642)" fill="#FECBBB"/>
<path d="M387.417 262.208C383.702 264.33 383.136 266.692 383.317 267.608C389.17 277.85 402.745 300.529 410.221 309.3C419.566 320.265 449.32 332.814 456.597 334.77C463.874 336.726 467.222 324.623 470.214 320.875C473.205 317.128 463.629 309.352 462.312 307.048C460.995 304.743 426.159 294.078 417.126 289.05C409.9 285.027 398.282 269.247 393.377 261.859C392.938 261.091 391.131 260.085 387.417 262.208Z" fill="#26BFCE"/>
<path d="M455 495.64V487L461 489.4V495.64C460.158 496.76 458.221 499 457.211 499C456.2 499 455.316 496.76 455 495.64Z" fill="#FFBDA9"/>
<path d="M504.486 493.5L500 486.115L506.374 485.051L509.614 490.384C509.476 491.779 508.983 494.699 508.119 495.223C507.256 495.748 505.337 494.293 504.486 493.5Z" fill="#FFBDA9"/>
<path d="M564.498 299.199C566.662 301.805 566.133 303.159 566.77 305.15L574.883 308C576.208 307.683 578.173 306.67 578.428 305.15C578.746 303.249 579.356 301.105 580.875 299.199C583.125 296.375 587.989 294.5 587.989 286.804C587.989 277.616 581.176 272 572.937 272C564.697 272 558 279.058 558 286.804C558 293.331 561.794 295.941 564.498 299.199Z" fill="#E8E4F9"/>
<path d="M568.5 287.375L570.375 289.25L571.5 287.75L573 289.25L574.5 287.375L575.25 289.25L577.125 287" stroke="#4F37BD"/>
<ellipse cx="568.5" cy="287.75" rx="0.75" ry="2.25" fill="#4F37BD"/>
<path d="M568.125 288.125C568.725 290.825 569.875 299.5 570.375 303.5" stroke="#4F37BD"/>
<path d="M577.5 288.125C576.9 290.825 575.75 299.5 575.25 303.5" stroke="#4F37BD"/>
<ellipse cx="577.5" cy="287.75" rx="0.75" ry="2.25" fill="#4F37BD"/>
<circle cx="572.625" cy="313.625" r="3.375" fill="#281679"/>
<rect x="565.5" y="302.75" width="14.25" height="12" rx="3" fill="#B2A2F3"/>
<path d="M41.5 253L32 264L41.5 275.5" stroke="#D5CCF9" stroke-width="3"/>
<path d="M69.5 275.5L79 264.5L69.5 253" stroke="#D5CCF9" stroke-width="3"/>
<path d="M50.5 275.5L60.5 253" stroke="#D5CCF9" stroke-width="3"/>
<path d="M226.685 70.0394C226.685 80.0024 215.783 89.998 194.354 86.1598C189.466 81.9378 199.242 79.6349 196.234 75.7967C193.226 71.9585 186.835 79.2511 183.452 76.9482C180.068 74.6453 180.829 67.7486 181.948 64.666C184.186 58.5 192.255 52 204.505 52C216.755 52 226.685 60.0765 226.685 70.0394Z" fill="#E8E4F9"/>
<path d="M206.686 61.6113C206.686 63.4758 204.1 66 200.911 66C199.106 64.9873 195.677 62.6241 195.135 61.6113C193.331 58.2353 197.301 57.5602 200.911 58.2353C204.52 58.9105 206.686 59.7468 206.686 61.6113Z" fill="#B2A2F3"/>
<path d="M207.686 75.0964C207.686 76.9609 210.271 79.4851 213.461 79.4851C215.266 78.4724 218.695 76.1092 219.236 75.0964C221.041 71.7204 216.007 70.9852 213.461 73.485C209.852 74.1602 207.686 73.2319 207.686 75.0964Z" fill="#FF6E6E"/>
<path d="M210.778 62.4781C209.936 62.8417 209.496 63.8176 209.649 64.5065C210.411 67.9354 214.434 68.4623 216.691 67.3769C218.634 66.4426 217.95 62.7977 217.567 61.7368C217.185 60.6758 215.887 59.1278 214.473 59.9077C213.838 60.2583 213.644 61.1947 213.217 61.7368C212.791 62.2788 211.704 62.0785 210.778 62.4781Z" fill="#FF9B2A"/>
<path d="M443.36 438.385C440.897 421.154 442.334 394.282 443.36 383L495.688 390.692C495.944 407.359 496.919 442.692 498.766 450.692C500.613 458.692 505.691 478.128 508 486.846L501.074 490.692C495.688 479.667 484.299 456.231 481.836 450.692C479.374 445.154 472.602 422.744 469.524 412.231C466.702 419.667 461.059 436.692 461.059 445.308V493H453.364C451.055 481.974 445.822 455.615 443.36 438.385Z" fill="#331E94"/>
<path d="M462 507C463.5 501.5 462 495.5 462 495.5L451 494C450.67 495.771 450.964 494.25 447 498.5C442.045 503.812 437.252 494.688 431.306 500C426.55 504.25 428.325 507 428.325 507C428.325 507 438.925 508.5 445.5 508.5C452.076 508.5 455 508.5 462 507Z" fill="#281679"/>
<path d="M516 501C514.5 494 512.5 489.5 512.5 489.5L499.5 492.5C499.151 494.271 501.683 492.25 497.5 496.5C492.271 501.812 491.774 494.188 485.5 499.5C480.48 503.75 483.5 507 483.5 507C483.5 507 493.544 507.976 499.5 507C505.455 506.024 512.5 504 516 501Z" fill="#331E94"/>
<path d="M219.229 468.2C220.783 460.085 203.54 457.314 194.108 455.826C192.131 455.515 186.944 462.017 190.357 464.781C194.592 468.21 217.286 478.344 219.229 468.2Z" fill="#281679"/>
<path d="M179.954 416.477C187.758 415.062 212.5 405.867 231.39 402.331C241.5 402.331 239.887 407.594 239 412L218.087 431.507L187.935 443L161.33 440.348L122.31 427.086C113.442 421.487 93.8346 416.477 101.913 405.867C106 400.5 114.152 402.331 122.31 404.5C135.613 408.036 170.199 418.245 179.954 416.477Z" fill="#36296F"/>
<path d="M171.449 346.1C162.56 346.1 148.339 345.206 143.006 348.779C135.007 351.088 115.157 388.964 118.119 397.894C119.897 403.252 147.45 414.861 167.004 417.54C186.559 420.219 191.5 414.5 199 411.5C200.5 405 202 399 202 391.5C202 379.278 200.999 357.251 193 351C185.001 344.749 180.337 346.1 171.449 346.1Z" fill="#FF9B2A"/>
<path d="M122.275 465.801C120.819 458.859 132 454 145.501 452C149.008 452.694 149.915 454.677 150.741 456.591C151.774 458.984 143.68 465.34 138.813 467.441C133.947 469.541 123.731 472.743 122.275 465.801Z" fill="#281679"/>
<path d="M134 379C134 377.343 135.343 376 137 376H201C202.657 376 204 377.343 204 379V417C204 417.552 203.552 418 203 418H135C134.448 418 134 417.552 134 417V379Z" fill="#9B87EF"/>
<path d="M147.438 452.429L155.375 449.015L155.541 455.475L149.808 457.941C147.908 459.04 144.733 461.662 142.159 457.875C141.571 453.676 146.534 453.162 147.438 452.429Z" fill="#FFBDA9"/>
<path d="M134 419C134 418.448 134.448 418 135 418H203C203.552 418 204 418.448 204 419V420C204 421.657 202.657 423 201 423H137C135.343 423 134 421.657 134 420V419Z" fill="#6F52ED"/>
<path d="M212 409.5C205.407 412.972 193.375 423.812 184 428.5C173 434 153.5 444.5 150 448C151.784 453.326 155.323 457.5 158 457.5C160.677 457.5 210 439.721 224.351 432.584C236.845 426.37 247.151 414 240.415 405.066C235.087 398 220.032 405.271 212 409.5Z" fill="#3B2B7E"/>
<path d="M173.488 347.5V342L162.988 341L163.988 347.5C165.322 348.667 168.388 351 169.988 351C171.588 351 172.988 348.667 173.488 347.5Z" fill="#FECBBB"/>
<path d="M155.988 314.444H176.988C176.988 314.444 184.887 334.064 176.988 340.444C170.608 345.597 155.988 340.444 155.988 340.444V314.444Z" fill="#FFDBD0"/>
<path d="M153.988 298.444C147.488 298.444 146.988 305.944 144.988 310.944C142.488 311.778 137.288 314.044 136.488 316.444C135.488 319.444 136.488 323.444 134.488 328.944C132.488 334.444 136.988 334.944 141.488 335.944C145.988 336.944 144.988 341.944 148.988 343.944C152.988 345.944 159.488 340.944 156.488 339.944C153.488 338.944 159.488 332.444 159.488 328.944C159.488 326.144 157.488 319.444 156.488 316.444C156.155 315.944 156.288 314.944 159.488 314.944C163.488 314.944 172.488 317.444 177.488 318.444C182.488 319.444 181.988 317.444 183.988 313.444C185.988 309.444 188.988 310.944 191.488 308.444C193.988 305.944 188.988 305.444 188.988 302.444C188.988 299.444 189.488 298.444 188.988 295.444C188.488 292.444 177.488 294.444 174.488 298.444C171.488 302.444 160.488 298.444 153.988 298.444Z" fill="#331E94"/>
<path d="M442 322.5C440.423 329.5 440.423 388 440.423 388C441.949 389.528 445 392.051 452.5 392.051C462.683 392.051 462.206 390.5 468.5 390.5C476 390.5 472 393 483.5 394.5C490.5 395.413 494.866 393.07 496.901 392.051L498 333C498 324.895 494.843 315.457 489.5 311C480.341 303.359 463.106 303.708 457 306C452.115 307.834 443.578 315.5 442 322.5Z" fill="#29C8D8"/>
<path d="M395 362.711C395 357.809 397.945 356.583 399.418 356.583C408.253 356.583 428.398 355.882 438.293 353.081C450.663 349.579 461.265 328.567 464.799 324.19C468.333 319.812 467.45 308.431 483.353 310.182C499.257 311.933 494.839 331.193 493.072 336.446C491.305 341.699 458.615 366.213 453.313 368.84C449.072 370.941 415.616 369.715 399.418 368.84C397.945 368.84 395 367.614 395 362.711Z" fill="#2ED2E2"/>
<path d="M463 306.5V297.5L472.5 300V306.5C471.167 307.667 468.1 310 466.5 310C464.9 310 463.5 307.667 463 306.5Z" fill="#FECBBB"/>
<path d="M480.348 272H458.631C458.631 272 450.462 292.649 458.631 299.364C465.229 304.787 472.235 303.601 479.624 299.364C486.863 295.213 491 286.941 491 281.004C491 276.255 480.348 272 480.348 272Z" fill="#FFDBD0"/>
<path d="M454.232 275.062C462.599 279.769 474.552 271.532 478.138 275.062C479.095 276.945 477.739 285.26 476.942 289.182C478.137 287.221 481.484 283.77 485.309 285.652C490.091 288.005 483.105 296.641 488.5 290.5C491.136 287.5 496.568 284 493.5 270.5C491.341 261 480.501 259.766 478.137 259.766C478.137 257.413 473.356 253.883 472.161 251.53C470.966 249.177 467.38 250.353 464.989 251.53C462.598 252.707 462.598 248 460.208 248C457.817 248 457.817 256.236 456.622 256.236C455.665 256.236 454.232 252.5 451.84 251.53C450.247 252.707 447.898 255.893 447.06 258.59C446 262 445.865 270.356 454.232 275.062Z" fill="#4F37BD"/>
<path d="M189.479 461.52L182.001 457.194L187.082 453.202L192.484 456.326C194.5 457.194 198.5 458.174 197 462.5C193.983 465.48 190.607 461.807 189.479 461.52Z" fill="#FFBDA9"/>
<path d="M189 450.5C189 456.5 186.533 459.685 182.5 461.5C171.015 458.532 145.512 447.5 137 443C126.37 437.381 106.641 429.931 101.34 421.918C93.7882 410.5 100.098 399 116 404.5C125.184 407.676 142.862 421.027 145.512 425.479C148.163 429.931 176.199 444.151 189 450.5Z" fill="#473591"/>
<path fill-rule="evenodd" clip-rule="evenodd" d="M166 393V400.135H168.752C170.093 400.135 172.374 399.591 172.374 396.549C172.374 393.507 170.093 393 168.752 393H166ZM168.137 395.354V397.744H169.044C169.485 397.744 170.237 397.562 170.237 396.543C170.237 395.524 169.485 395.354 169.044 395.354H168.137Z" fill="#D5CCF9"/>
</svg>
