<svg width="604" height="508" viewBox="0 0 604 508" fill="none" xmlns="http://www.w3.org/2000/svg">
<path d="M98.1224 163.103C58.6394 180.152 38.0014 225.916 45.1799 258.219C80.9093 419.003 269.57 443.71 375.394 392.817C466.497 349.004 434.407 178.091 416.472 128.341C398.537 78.5903 337.707 6.00228 271.4 42.5702C241.592 59.0094 232.498 102.923 212.497 128.341C192.496 153.759 141.518 144.365 98.1224 163.103Z" fill="#6F52ED" fill-opacity="0.2"/>
<path d="M329.5 183.5C327.5 182.7 316.667 179.333 311.5 177V199H329.5C332.5 197 339.5 200.5 339.5 191C339.5 187.5 332 184.5 329.5 183.5Z" fill="#8871ED"/>
<path d="M541.292 274.013C523.683 241.317 462.931 213.182 399.785 248.012C369.388 264.779 275.652 265.616 258.93 352.012C246.93 414.012 310.403 446.562 356 478C401.597 509.438 519.28 511.022 548.368 466.222C558.129 451.189 565.863 393.632 562 380C548.635 332.843 563.305 314.882 541.292 274.013Z" fill="#FF9B2A" fill-opacity="0.2"/>
<path d="M245.864 109.351C253.615 108.243 266.5 109.351 270.779 118.7L278 130.7C276.154 133.933 263.858 136.23 258.321 138.446C251.4 141.217 256 155.167 264 160.5C274.5 167.5 286.463 180.301 292 190C297.537 199.699 277.699 234.046 270.779 240.974C263.858 247.901 245.864 254.829 237.559 257.6C229.253 260.371 198.803 261.756 193.266 242.359C187.729 222.962 201.571 216.035 211.259 210.493C220.948 204.951 216.796 191.096 215.412 184.168C214.028 177.241 208.491 159.229 211.259 146.759C214.028 134.29 236.174 110.736 245.864 109.351Z" fill="#FF6E6E"/>
<path d="M278.999 169C274.151 170.322 266 174 257.5 180.5C253.5 185 236.998 215.5 237.498 223C237.998 230.5 257.498 228.5 271.498 231.5C282.698 233.9 310.165 230.5 322.498 228.5L322.491 228.27C321.99 212.231 321.116 184.242 316.999 180.5C311.499 175.5 302.999 173 296.999 170C290.999 167 284.499 167.5 278.999 169Z" fill="#8871ED"/>
<path d="M336.258 126.96C331.918 133.043 331.345 142.908 331.602 147.08L343.434 154.043C348.916 150.184 360.607 141.347 363.512 136.871C366.416 132.394 366.402 115.754 366.032 107.993C363.626 111.197 358.232 118.032 355.908 119.741C353.003 121.876 341.683 119.356 336.258 126.96Z" fill="#E8E4F9"/>
<path fill-rule="evenodd" clip-rule="evenodd" d="M343.852 121.963C344.801 122.399 345.69 122.984 346.467 123.756C349.144 126.409 350.115 128.886 350.933 130.973C351.669 132.849 352.282 134.411 353.9 135.503C355.42 136.529 358.302 138.156 361.315 139.514C362.255 138.536 363.013 137.639 363.512 136.87C366.417 132.394 366.402 115.753 366.032 107.993C363.626 111.197 358.232 118.032 355.908 119.74C354.925 120.463 352.977 120.653 350.62 120.882C348.554 121.083 346.173 121.315 343.852 121.963Z" fill="#8871ED"/>
<path d="M328.924 145.545C329.227 145.084 329.848 144.956 330.309 145.26L342 152.962C342.461 153.265 342.589 153.886 342.285 154.347L264.828 271.931C263.612 273.775 261.132 274.286 259.287 273.071L252.606 268.67C250.761 267.454 250.251 264.974 251.466 263.129L328.924 145.545Z" fill="#6F52ED"/>
<path d="M97 207C97 198.716 103.716 192 112 192H480C488.284 192 495 198.716 495 207V435H97V207Z" fill="#281679"/>
<ellipse cx="290" cy="463.5" rx="262" ry="16.5" fill="#D5CCF9"/>
<path d="M120 224C120 218.477 124.477 214 130 214H462C467.523 214 472 218.477 472 224V429H120V224Z" fill="#E8E4F9"/>
<path d="M58 429H533V433C533 449.569 519.569 463 503 463H88C71.4315 463 58 449.569 58 433V429Z" fill="#190C52"/>
<path d="M120 224C120 218.477 124.477 214 130 214H462C467.523 214 472 218.477 472 224V235H120V224Z" fill="#8871ED"/>
<circle cx="458.5" cy="224.5" r="4.5" fill="#FF6E6E"/>
<circle cx="443.5" cy="224.5" r="4.5" fill="#B2A2F3"/>
<circle cx="428.5" cy="224.5" r="4.5" fill="#B2A2F3"/>
<rect x="248" y="273" width="210" height="145" rx="15" fill="#D5CCF9"/>
<rect x="248" y="246" width="210" height="17" rx="4" fill="#D5CCF9"/>
<rect x="128" y="246" width="104" height="87" rx="4" fill="#D5CCF9"/>
<rect x="128" y="344" width="104" height="5" rx="2.5" fill="#D5CCF9"/>
<rect x="128" y="377" width="104" height="5" rx="2.5" fill="#D5CCF9"/>
<rect x="128" y="355" width="104" height="5" rx="2.5" fill="#D5CCF9"/>
<rect x="128" y="388" width="104" height="5" rx="2.5" fill="#D5CCF9"/>
<rect x="128" y="366" width="104" height="5" rx="2.5" fill="#D5CCF9"/>
<rect x="128" y="399" width="104" height="5" rx="2.5" fill="#D5CCF9"/>
<path d="M424.36 438.385C421.897 421.154 423.334 394.282 424.36 383L476.688 390.692C476.944 407.359 477.919 442.692 479.766 450.692C481.613 458.692 486.691 478.128 489 486.846L482.074 490.692C476.688 479.667 465.299 456.231 462.836 450.692C460.374 445.154 453.602 422.744 450.524 412.231C447.702 419.667 442.059 436.692 442.059 445.308V493H434.364C432.055 481.974 426.822 455.615 424.36 438.385Z" fill="#331E94"/>
<path fill-rule="evenodd" clip-rule="evenodd" d="M13 236C8.58172 236 5 239.582 5 244V289C5 293.418 8.58172 297 13 297H59L67 305V296.748C70.4505 295.86 73 292.728 73 289V244C73 239.582 69.4183 236 65 236H13Z" fill="#8871ED"/>
<path fill-rule="evenodd" clip-rule="evenodd" d="M166 46C161.582 46 158 49.5817 158 54V94C158 98.4183 161.582 102 166 102H207L215 110V101.748C218.45 100.86 221 97.7277 221 94V54C221 49.5817 217.418 46 213 46H166Z" fill="#8871ED"/>
<path fill-rule="evenodd" clip-rule="evenodd" d="M519 249C514.582 249 511 252.582 511 257V324C511 328.418 514.582 332 519 332L519 340L527 332H596C600.418 332 604 328.418 604 324V257C604 252.582 600.418 249 596 249H519Z" fill="#8871ED"/>
<path d="M257.5 126.2C255.734 129.437 256.5 133.033 257.5 134.7C258.833 135.2 261.5 135.9 261.5 134.7C261.5 133.2 263 130.7 266 126.2C268.4 122.6 271.666 120.033 273 119.2C266 117.699 262.136 117.7 257.5 126.2Z" fill="#4F37BD"/>
<path d="M292 171.5V166L281.5 165L282.5 171.5C283.833 172.667 286.9 175 288.5 175C290.1 175 291.5 172.667 292 171.5Z" fill="#FECBBB"/>
<path d="M149.5 332.5V327L139 326L140 332.5C141.333 333.667 144.4 336 146 336C147.6 336 149 333.667 149.5 332.5Z" fill="#FECBBB"/>
<path d="M285.956 201.859L287.443 206.788C297.802 206.994 320.31 207.182 327.465 206.283C336.408 205.158 341.189 194.94 339.872 191.584C338.556 188.227 332.905 185.975 325.534 186.93C319.637 187.694 296.692 197.201 285.956 201.859Z" fill="#9B87EF"/>
<path d="M276.348 176.483L273.462 172.22C263.511 175.107 241.968 181.629 235.405 184.618C227.202 188.354 225.68 199.532 227.937 202.344C230.193 205.156 236.258 205.624 243.01 202.518C248.413 200.033 267.487 184.126 276.348 176.483Z" fill="#9B87EF"/>
<ellipse cx="280.219" cy="207.563" rx="2.5" ry="7.29126" transform="rotate(50.556 280.219 207.563)" fill="#FFDBD0"/>
<ellipse cx="360.412" cy="254.556" rx="3.80607" ry="7.29126" transform="rotate(143.248 360.412 254.556)" fill="#FFDBD0"/>
<ellipse cx="367.767" cy="362.825" rx="3.80607" ry="7.29126" transform="rotate(98.3577 367.767 362.825)" fill="#FFDBD0"/>
<ellipse cx="89.2194" cy="430.563" rx="2.5" ry="7.29126" transform="rotate(50.556 89.2194 430.563)" fill="#FFDBD0"/>
<path d="M295.5 167.2C302.137 164.957 303.101 143.931 300.335 135.987C295.265 133.651 282.912 129.258 274.062 130.38C265.212 131.501 261.5 140.86 261.5 146C265.648 152.075 264.5 162 278 167.2C283.325 169.251 287.203 170.003 295.5 167.2Z" fill="#FFDBD0"/>
<path d="M292.505 145.2C286.172 146.533 272.105 149 266.505 148.2V156.2C261.5 148.2 260.5 149.7 258 145.2C255.5 140.7 257.495 132.699 263.5 124.7C266.082 121.26 276.006 114.2 288.006 115.7C300.006 117.2 300.505 125.2 300.505 131.2C305.305 133.6 304.172 141.533 303.005 145.2H297.505C295.839 141.866 292.505 135.4 292.505 136.2V145.2Z" fill="#FF6E6E"/>
<ellipse cx="275.897" cy="167.642" rx="2.5" ry="7.29126" transform="rotate(-11.4427 275.897 167.642)" fill="#FECBBB"/>
<path d="M119 414H169V425C169 428.314 166.314 431 163 431H125C121.686 431 119 428.314 119 425V414Z" fill="#331E94"/>
<path d="M132 299.444H153C153 299.444 160.899 319.064 153 325.444C146.62 330.597 132 325.444 132 325.444V299.444Z" fill="#FFDBD0"/>
<path d="M130 283.444C123.5 283.444 123 290.944 121 295.944C118.5 296.778 113.3 299.044 112.5 301.444C111.5 304.444 112.5 308.444 110.5 313.944C108.5 319.444 113 319.944 117.5 320.944C122 321.944 121 326.944 125 328.944C129 330.944 135.5 325.944 132.5 324.944C129.5 323.944 135.5 317.444 135.5 313.944C135.5 311.144 133.5 304.444 132.5 301.444C132.167 300.944 132.3 299.944 135.5 299.944C139.5 299.944 148.5 302.444 153.5 303.444C158.5 304.444 158 302.444 160 298.444C162 294.444 165 295.944 167.5 293.444C170 290.944 165 290.444 165 287.444C165 284.444 165.5 283.444 165 280.444C164.5 277.444 153.5 279.444 150.5 283.444C147.5 287.444 136.5 283.444 130 283.444Z" fill="#331E94"/>
<path d="M162.394 342.009C159.459 335.569 151.312 330.948 147.5 329.5C143.688 328.052 136.028 331.201 132.5 333.5C128.972 335.799 97.367 369.236 95.6055 375.676C93.844 382.117 90.4679 411.538 89 425.444H97.8073L110.284 380.067L126.431 367.625C126.431 367.625 123.433 382.139 122 392C120.567 401.861 119.092 418.125 119.092 418.125C123.5 420 129.789 419.491 133.037 418.125C140 415.198 146.713 413.227 150.651 415.198C156.5 418.125 164 418.125 169 418.125C168.021 395.437 165.33 348.45 162.394 342.009Z" fill="#9B87EF"/>
<path d="M163.5 432.944C157.5 434.544 151.333 430.611 149 428.444C156.5 409.777 173.1 372.844 179.5 374.444C187.5 376.444 192.5 390.944 195.5 400.444C197.9 408.044 199.833 440.277 200.5 455.444H188.5L179.5 414.444C176.667 419.944 169.5 431.344 163.5 432.944Z" fill="#281679"/>
<path d="M188 477V465.312L201.595 460C201.943 461.771 201.317 463.75 205.5 468C210.729 473.312 216.226 464.688 222.5 470C227.52 474.25 225.646 477 225.646 477H188Z" fill="#281679"/>
<path d="M447.988 507V495.312L434.394 490C434.045 491.771 434.671 493.75 430.488 498C425.26 503.312 419.763 494.688 413.488 500C408.469 504.25 410.342 507 410.342 507H447.988Z" fill="#281679"/>
<path d="M161 477V465.312L174.595 460C174.943 461.771 174.317 463.75 178.5 468C183.729 473.312 189.226 464.688 195.5 470C200.52 474.25 198.646 477 198.646 477H161Z" fill="#331E94"/>
<path d="M495.988 507V495.312L482.394 490C482.045 491.771 482.671 493.75 478.488 498C473.26 503.312 467.763 494.688 461.488 500C456.469 504.25 458.342 507 458.342 507H495.988Z" fill="#331E94"/>
<path d="M137.5 431.541C131.5 433.141 123 432.97 123 427.041C123 417.596 147.1 371.441 153.5 373.041C161.5 375.041 166.5 389.541 169.5 399.041C171.9 406.641 173.833 438.874 174.5 454.041H162.5L153.5 413.041C150.667 418.541 143.5 429.941 137.5 431.541Z" fill="#331E94"/>
<path d="M368.417 262.207C364.702 264.33 364.136 266.692 364.317 267.607C370.17 277.85 383.745 300.528 391.221 309.3C400.566 320.264 430.32 332.814 437.597 334.77C444.874 336.726 448.222 324.622 451.214 320.875C454.205 317.127 444.629 309.352 443.312 307.047C441.995 304.743 407.159 294.078 398.126 289.049C390.9 285.026 379.282 269.246 374.377 261.859C373.938 261.091 372.131 260.085 368.417 262.207Z" fill="#26BFCE"/>
<path d="M423 322.5C421.423 329.5 421.423 388 421.423 388C422.949 389.528 426 392.051 433.5 392.051C443.683 392.051 443.206 390.5 449.5 390.5C457 390.5 453 393 464.5 394.5C471.5 395.413 475.866 393.07 477.901 392.051L479 333C479 324.895 475.843 315.457 470.5 310.999C461.341 303.359 444.106 303.707 438 306C433.115 307.833 424.578 315.5 423 322.5Z" fill="#29C8D8"/>
<path d="M376 362.711C376 357.809 378.945 356.583 380.418 356.583C389.253 356.583 409.398 355.882 419.293 353.081C431.663 349.579 442.265 328.567 445.799 324.19C449.333 319.812 448.45 308.431 464.353 310.182C480.257 311.933 475.839 331.193 474.072 336.446C472.305 341.699 439.615 366.213 434.313 368.84C430.072 370.941 396.616 369.715 380.418 368.84C378.945 368.84 376 367.614 376 362.711Z" fill="#2ED2E2"/>
<path d="M444 306.5V297.5L453.5 300V306.5C452.167 307.667 449.1 310 447.5 310C445.9 310 444.5 307.667 444 306.5Z" fill="#FECBBB"/>
<path d="M461.348 272H439.631C439.631 272 431.462 292.649 439.631 299.364C446.229 304.787 453.235 303.601 460.624 299.364C467.863 295.213 472 286.941 472 281.004C472 276.255 461.348 272 461.348 272Z" fill="#FFDBD0"/>
<path d="M435.232 275.062C443.599 279.769 455.552 271.532 459.138 275.062C460.095 276.945 458.739 285.26 457.942 289.182C459.137 287.221 462.484 283.77 466.309 285.652C471.091 288.005 464.105 296.641 469.5 290.5C472.136 287.5 477.568 284 474.5 270.5C472.341 261 461.501 259.766 459.137 259.766C459.137 257.413 454.356 253.883 453.161 251.53C451.966 249.177 448.38 250.353 445.989 251.53C443.598 252.707 443.598 248 441.208 248C438.817 248 438.817 256.236 437.622 256.236C436.665 256.236 435.232 252.5 432.84 251.53C431.247 252.707 428.898 255.893 428.06 258.59C427 262 426.865 270.356 435.232 275.062Z" fill="#4F37BD"/>
<path d="M546.664 297.265C549.549 300.74 548.844 302.545 549.693 305.2L560.51 309C562.278 308.578 564.898 307.226 565.237 305.2C565.661 302.666 566.475 299.807 568.5 297.265C571.5 293.5 577.986 291 577.986 280.739C577.986 268.488 568.901 261 557.915 261C546.93 261 538 270.411 538 280.739C538 289.441 543.058 292.922 546.664 297.265Z" fill="#E8E4F9"/>
<path d="M552 281.5L554.5 284L556 282L558 284L560 281.5L561 284L563.5 281" stroke="#4F37BD"/>
<ellipse cx="552" cy="282" rx="1" ry="3" fill="#4F37BD"/>
<path d="M551.5 282.5C552.3 286.1 553.833 297.667 554.5 303" stroke="#4F37BD"/>
<path d="M564 282.5C563.2 286.1 561.667 297.667 561 303" stroke="#4F37BD"/>
<ellipse cx="564" cy="282" rx="1" ry="3" fill="#4F37BD"/>
<circle cx="557.5" cy="316.5" r="4.5" fill="#281679"/>
<rect x="548" y="302" width="19" height="16" rx="3" fill="#B2A2F3"/>
<path d="M24.5 256L15 267L24.5 278.5" stroke="#D5CCF9" stroke-width="3"/>
<path d="M52.5 278.5L62 267.5L52.5 256" stroke="#D5CCF9" stroke-width="3"/>
<path d="M33.5 278.5L43.5 256" stroke="#D5CCF9" stroke-width="3"/>
<path d="M211.685 74.0394C211.685 84.0024 200.783 93.998 179.354 90.1598C174.466 85.9378 184.242 83.6349 181.234 79.7967C178.226 75.9585 171.835 83.2511 168.452 80.9482C165.068 78.6453 165.829 71.7486 166.948 68.666C169.186 62.5 177.255 56 189.505 56C201.755 56 211.685 64.0765 211.685 74.0394Z" fill="#E8E4F9"/>
<path d="M191.686 65.6113C191.686 67.4758 189.1 70 185.911 70C184.106 68.9873 180.677 66.6241 180.135 65.6113C178.331 62.2353 182.301 61.5602 185.911 62.2353C189.52 62.9105 191.686 63.7468 191.686 65.6113Z" fill="#B2A2F3"/>
<path d="M192.686 79.0964C192.686 80.9609 195.271 83.4851 198.461 83.4851C200.266 82.4724 203.695 80.1092 204.236 79.0964C206.041 75.7204 201.007 74.9852 198.461 77.485C194.852 78.1602 192.686 77.2319 192.686 79.0964Z" fill="#FF6E6E"/>
<path d="M195.778 66.4781C194.936 66.8417 194.496 67.8176 194.649 68.5065C195.411 71.9354 199.434 72.4623 201.691 71.3769C203.634 70.4426 202.95 66.7977 202.567 65.7368C202.185 64.6758 200.887 63.1278 199.473 63.9077C198.838 64.2583 198.644 65.1947 198.217 65.7368C197.791 66.2788 196.704 66.0785 195.778 66.4781Z" fill="#FF9B2A"/>
</svg>
