<svg width="616" height="518" viewBox="0 0 616 518" fill="none" xmlns="http://www.w3.org/2000/svg">
<path d="M116.304 163.103C76.8214 180.152 33.0034 229.696 40.1819 262C75.9113 422.784 287.752 443.71 393.576 392.817C484.679 349.003 452.589 178.091 434.654 128.34C416.719 78.5901 355.889 6.00206 289.582 42.5699C259.774 59.0092 250.68 102.922 230.679 128.34C210.678 153.758 159.7 144.365 116.304 163.103Z" fill="#6F52ED" fill-opacity="0.2"/>
<path d="M347.682 183.5C345.682 182.7 334.848 179.333 329.682 177V199H347.682C350.682 197 357.682 200.5 357.682 191C357.682 187.5 350.182 184.5 347.682 183.5Z" fill="#8871ED"/>
<path d="M264.045 109.351C271.797 108.242 284.682 109.35 288.96 118.7L296.182 130.7C294.336 133.932 282.039 136.229 276.503 138.446C269.582 141.217 274.182 155.166 282.182 160.5C292.682 167.5 304.645 180.301 310.182 190C315.718 199.698 295.881 234.046 288.96 240.973C282.039 247.901 264.045 254.829 255.74 257.6C247.435 260.371 216.984 261.756 211.448 242.359C205.911 222.962 219.753 216.034 229.441 210.492C239.13 204.95 234.978 191.095 233.594 184.168C232.209 177.24 226.673 159.229 229.441 146.759C232.209 134.289 254.356 110.736 264.045 109.351Z" fill="#FF6E6E"/>
<path d="M275.681 126.199C273.915 129.437 274.681 133.032 275.681 134.699C277.015 135.199 279.681 135.899 279.681 134.699C279.681 133.199 281.181 130.699 284.181 126.199C286.581 122.599 289.848 120.032 291.181 119.199C284.181 117.699 280.318 117.699 275.681 126.199Z" fill="#4F37BD"/>
<path d="M313.682 167.199C320.319 164.956 321.282 143.93 318.517 135.987C313.447 133.65 301.094 129.258 292.244 130.379C283.394 131.501 279.682 140.86 279.682 146C283.83 152.074 282.682 162 296.182 167.199C301.506 169.25 305.385 170.003 313.682 167.199Z" fill="#FFDBD0"/>
<path d="M310.687 145.199C304.354 146.533 290.287 148.999 284.687 148.199V156.199C279.681 148.199 278.681 149.699 276.181 145.199C273.681 140.699 275.677 132.699 281.682 124.699C284.264 121.259 294.187 114.199 306.187 115.699C318.187 117.199 318.687 125.199 318.687 131.199C323.487 133.599 322.354 141.533 321.187 145.199H315.687C314.02 141.866 310.687 135.399 310.687 136.199V145.199Z" fill="#FF6E6E"/>
<path d="M297.18 168.999C292.332 170.321 284.182 174 275.682 180.499C271.682 185 255.18 215.499 255.68 222.999C256.18 230.499 275.68 228.499 289.68 231.499C300.88 233.899 328.347 230.499 340.68 228.499L340.673 228.27C340.172 212.231 339.297 184.242 335.18 180.499C329.68 175.5 321.18 173 315.18 170C309.18 166.999 302.68 167.5 297.18 168.999Z" fill="#8871ED"/>
<path d="M310.182 172.5V167L299.682 166L300.682 172.5C302.015 173.666 305.082 176 306.682 176C308.282 176 309.682 173.666 310.182 172.5Z" fill="#FFDBD0"/>
<path d="M545.182 192C527.572 159.304 388.182 164.353 322.182 220C271.182 263 228.904 281.603 212.182 367.999C200.181 429.999 276.585 454.561 322.182 485.999C367.778 517.437 551.094 474.799 580.182 430C589.943 414.967 613.182 383 591.182 354C561.558 314.95 567.194 232.869 545.182 192Z" fill="#FF9B2A" fill-opacity="0.2"/>
<path d="M495.682 184.225C481.682 194.625 466.848 224.225 461.182 237.725C463.848 240.891 470.882 246.925 477.682 245.725C486.182 244.225 509.682 222.725 523.182 214.225C536.682 205.725 547.682 173.225 542.682 169.225C537.682 165.225 513.182 171.225 495.682 184.225Z" fill="#8871ED"/>
<path d="M85.3779 355.432C97.1895 368.263 128.183 379.909 142.203 384.128C145.072 381.144 150.334 373.516 148.427 366.88C146.043 358.584 122.196 337.469 112.327 324.936C102.457 312.402 68.9824 304.873 65.5291 310.265C62.0759 315.657 70.6134 339.393 85.3779 355.432Z" fill="#543EB6"/>
<path d="M57.6817 411C70.58 422.738 97.1773 429.648 111.515 432.613C114.11 429.387 118.678 421.325 116.193 414.883C113.086 406.83 87.4679 387.903 76.5303 376.29C65.5928 364.676 24.1816 376.29 21.1814 388.999C19.7103 395.231 41.5589 396.326 57.6817 411Z" fill="#8871ED"/>
<path d="M511.486 216.273C501.201 221.401 486.998 237.945 481.182 245.575V316.999C491.283 312.726 513.323 301.616 520.669 291.36C529.852 278.54 530.571 255.22 543.627 245.575C562.682 231.499 573.931 232.756 584.951 205.285C599.707 168.499 569.682 176.901 556.483 185.139C536.682 197.499 533.526 205.285 511.486 216.273Z" fill="#B2A2F3"/>
<path d="M576.682 192C564.348 204.666 538.182 230 532.182 234.5C522.386 241.847 509.015 260.666 501.182 271.5" stroke="#8871ED"/>
<path d="M562.682 206C562.682 206 564.182 199 562.682 192" stroke="#8871ED"/>
<path d="M537.182 230C537.182 230 538.182 219.5 537.182 211" stroke="#8871ED"/>
<path d="M557.182 211.5C557.682 209.5 558.182 204.5 557.182 198.5M551.182 217C551.182 217 562.182 215.5 568.682 217" stroke="#8871ED"/>
<path d="M525.182 241C525.182 239.4 527.682 227.5 525.182 214.5M519.682 247C519.682 247 530.682 245 536.682 247" stroke="#8871ED"/>
<path d="M80.7898 387.374C87.7999 396.481 106.766 407.237 115.373 411.477L185.464 397.742C179.328 388.651 164.186 369.159 152.709 363.922C138.363 357.376 115.339 361.155 103.364 350.198C85.8864 334.206 79.2591 328.531 50.1817 323C9.18167 315.201 25.0495 353.997 41.1819 360C62.6822 368 65.768 367.859 80.7898 387.374Z" fill="#B2A2F3"/>
<path d="M41.6811 334.5C55.443 338.294 86.0798 354.939 96.6814 364.499C106.681 373.517 124.829 381.261 136.967 386.865" stroke="#8871ED"/>
<path d="M55.6816 340C55.6816 340 48.8904 340.528 42.3096 343.346" stroke="#8871ED"/>
<path d="M89.6819 359.5C89.6819 359.5 77.6819 359.5 70.6729 363.172" stroke="#8871ED"/>
<path d="M65.1503 344.342C63.0915 344.236 58.0887 344.707 52.393 346.843M71.6812 347.999C71.6812 347.999 68.1141 338.667 68.3361 331.999" stroke="#8871ED"/>
<path d="M102.421 369.179C100.851 369.486 88.6919 369.322 76.4154 374.275M109.366 373.422C109.366 373.422 105.288 363.012 106.097 356.739" stroke="#8871ED"/>
<path d="M555.59 392.855C545.032 390.05 536.38 395.187 533.374 398.106C532.943 399.727 534.37 403.874 543.521 407.495C554.96 412.021 562.871 407.431 564.304 404.837C565.737 402.243 566.702 395.807 555.59 392.855Z" fill="#9B87EF"/>
<path d="M554.044 359.05C545.374 365.695 544.155 375.683 544.63 379.847C545.65 381.178 549.804 382.582 558.262 377.549C568.834 371.258 570.032 362.19 568.854 359.471C567.676 356.753 563.171 352.056 554.044 359.05Z" fill="#FF6E6E"/>
<path d="M536.94 426.57C526.021 426.252 519.19 418.864 517.139 415.209C517.188 413.533 519.736 409.964 529.54 409.099C541.794 408.017 548.071 414.671 548.705 417.565C549.34 420.459 548.433 426.904 536.94 426.57Z" fill="#FFA2A2"/>
<path d="M530.572 372.587C533.93 382.982 529.256 391.893 526.499 395.049C524.903 395.564 520.687 394.358 516.589 385.41C511.466 374.226 515.633 366.084 518.148 364.516C520.662 362.949 527.038 361.645 530.572 372.587Z" fill="#9B87EF"/>
<path d="M511.268 397.712C515.913 404.757 514.272 412.355 512.871 415.274C511.789 415.987 508.402 415.959 503.505 410.143C497.383 402.874 498.805 395.953 500.354 394.267C501.902 392.582 506.38 390.296 511.268 397.712Z" fill="#B2A2F3"/>
<path d="M561.582 364.703C548.923 375.964 521.785 401.422 514.5 413.169C507.214 424.916 504.503 433.069 504.058 435.677" stroke="#6F52ED"/>
<path d="M522.935 373.025C524.02 378.27 526.09 390.817 525.69 399.039" stroke="#6F52ED"/>
<path d="M554.949 400.864C547.772 398.957 531.872 395.923 525.69 399.039" stroke="#6F52ED"/>
<path d="M538.668 417.36C532.37 414.943 519.221 412.193 512.882 416.457" stroke="#6F52ED"/>
<path d="M457.423 168.549C447.828 169.165 442.047 175.874 440.356 179.152C440.45 180.625 442.802 183.686 451.452 184.144C462.265 184.718 467.58 178.672 468.05 176.106C468.519 173.541 467.522 167.9 457.423 168.549Z" fill="#D5CCF9"/>
<path d="M444.994 142.587C438.889 151.645 440.912 161.502 442.686 165.299C444.077 166.236 448.462 166.245 454.878 158.783C462.899 149.455 461.151 140.477 459.169 138.274C457.186 136.072 451.421 133.053 444.994 142.587Z" fill="#FFA1A1"/>
<path d="M452.246 147.889C443.829 162.592 431.863 185.965 428.694 199.419C425.525 212.873 425.549 221.466 425.957 224.08" stroke="#6F52ED"/>
<path d="M457.748 175.889C452.248 175.889 439.676 177.542 434.807 182.463" stroke="#6F52ED"/>
<path d="M117.877 155.533C128.8 155.533 135.843 162.72 137.999 166.313C137.999 167.99 135.556 171.631 125.782 172.781C113.564 174.218 107.097 167.75 106.378 164.876C105.659 162.001 106.379 155.533 117.877 155.533Z" fill="#FF6E6E"/>
<path d="M128.051 123.258C134.724 131.907 133.337 141.873 131.81 145.775C130.482 146.8 126.106 147.09 119.225 140.054C110.623 131.259 111.793 122.188 113.629 119.863C115.466 117.537 121.026 114.155 128.051 123.258Z" fill="#B2A2F3"/>
<path d="M127.244 192.906C137.878 195.403 146.378 190.016 149.298 187.011C149.681 185.378 148.135 181.275 138.882 177.921C127.316 173.729 119.542 178.548 118.185 181.182C116.828 183.816 116.05 190.278 127.244 192.906Z" fill="#B2A2F3"/>
<path d="M147.26 142.368C141.346 151.553 143.575 161.365 145.429 165.123C146.839 166.031 151.223 165.948 157.482 158.353C165.305 148.858 163.368 139.919 161.34 137.759C159.312 135.598 153.485 132.701 147.26 142.368Z" fill="#9B87EF"/>
<path d="M159.465 171.608C153.167 177.224 152.802 184.989 153.407 188.169C154.269 189.136 157.55 189.979 163.776 185.616C171.559 180.162 171.962 173.108 170.898 171.081C169.834 169.055 166.094 165.696 159.465 171.608Z" fill="#B2A2F3"/>
<path d="M119.314 126.786C128.657 140.92 148.348 172.493 152.373 185.717C156.398 198.94 156.925 207.517 156.685 210.152" stroke="#6F52ED"/>
<path d="M154.529 144.753C152.133 149.544 146.911 161.138 145.186 169.188" stroke="#6F52ED"/>
<path d="M116.44 163.438C123.866 163.438 140.012 164.588 145.186 169.188" stroke="#6F52ED"/>
<path d="M127.938 183.561C134.646 182.843 148.061 183.561 153.092 189.31" stroke="#6F52ED"/>
<path d="M354.439 126.959C350.099 133.042 349.527 142.907 349.783 147.079L361.615 154.042C367.097 150.184 378.788 141.347 381.693 136.87C384.598 132.393 384.584 115.753 384.214 107.993C381.807 111.197 376.413 118.031 374.089 119.74C371.184 121.876 359.865 119.356 354.439 126.959Z" fill="#E8E4F9"/>
<path fill-rule="evenodd" clip-rule="evenodd" d="M362.034 121.963C362.983 122.398 363.871 122.984 364.649 123.755C367.325 126.409 368.296 128.885 369.115 130.972C369.851 132.849 370.463 134.411 372.081 135.503C373.602 136.529 376.483 138.156 379.496 139.514C380.437 138.535 381.194 137.638 381.693 136.87C384.598 132.393 384.584 115.753 384.214 107.993C381.807 111.196 376.413 118.031 374.089 119.74C373.106 120.463 371.158 120.652 368.801 120.882C366.735 121.083 364.355 121.314 362.034 121.963Z" fill="#8871ED"/>
<path d="M347.106 145.545C347.409 145.084 348.03 144.956 348.491 145.26L360.182 152.961C360.643 153.265 360.771 153.885 360.467 154.346L283.01 271.93C281.794 273.775 279.314 274.286 277.469 273.07L270.788 268.669C268.943 267.454 268.433 264.973 269.648 263.129L347.106 145.545Z" fill="#6F52ED"/>
<ellipse cx="308.182" cy="463.5" rx="262" ry="16.5" fill="#D5CCF9"/>
<path d="M115.182 207C115.182 198.715 121.897 192 130.182 192H498.182C506.466 192 513.182 198.715 513.182 207V435H115.182V207Z" fill="#281679"/>
<path d="M138.182 224C138.182 218.477 142.659 214 148.182 214H480.182C485.704 214 490.182 218.477 490.182 224V429H138.182V224Z" fill="#E8E4F9"/>
<path d="M76.1816 429H551.182V433C551.182 449.568 537.75 463 521.182 463H106.182C89.6131 463 76.1816 449.568 76.1816 433V429Z" fill="#190C52"/>
<path d="M138.182 224C138.182 218.477 142.659 214 148.182 214H480.182C485.704 214 490.182 218.477 490.182 224V235H138.182V224Z" fill="#8871ED"/>
<circle cx="476.682" cy="224.5" r="4.5" fill="#FF6E6E"/>
<circle cx="461.682" cy="224.5" r="4.5" fill="#B2A2F3"/>
<circle cx="446.682" cy="224.5" r="4.5" fill="#B2A2F3"/>
<rect x="266.182" y="273" width="210" height="145" rx="15" fill="#D5CCF9"/>
<rect x="266.182" y="246" width="210" height="17" rx="4" fill="#D5CCF9"/>
<rect x="146.182" y="246" width="104" height="87" rx="4" fill="#D5CCF9"/>
<rect x="146.182" y="344" width="104" height="5" rx="2.5" fill="#D5CCF9"/>
<rect x="146.182" y="377" width="104" height="5" rx="2.5" fill="#D5CCF9"/>
<rect x="146.182" y="355" width="104" height="5" rx="2.5" fill="#D5CCF9"/>
<rect x="146.182" y="388" width="104" height="5" rx="2.5" fill="#D5CCF9"/>
<rect x="146.182" y="366" width="104" height="5" rx="2.5" fill="#D5CCF9"/>
<rect x="146.182" y="399" width="104" height="5" rx="2.5" fill="#D5CCF9"/>
<path d="M304.138 201.859L305.625 206.787C315.984 206.994 338.492 207.182 345.646 206.282C354.59 205.157 359.371 194.94 358.054 191.584C356.737 188.227 351.087 185.975 343.715 186.93C337.818 187.694 314.873 197.201 304.138 201.859Z" fill="#9E89F4"/>
<ellipse cx="298.401" cy="207.562" rx="2.5" ry="7.29126" transform="rotate(50.556 298.401 207.562)" fill="#FFDBD0"/>
<path d="M294.53 176.482L291.643 172.22C281.692 175.107 260.149 181.628 253.587 184.617C245.384 188.354 243.862 199.531 246.118 202.344C248.375 205.156 254.439 205.624 261.192 202.518C266.594 200.032 285.668 184.125 294.53 176.482Z" fill="#9E89F4"/>
<ellipse cx="294.078" cy="167.642" rx="2.5" ry="7.29126" transform="rotate(-11.4427 294.078 167.642)" fill="#FECBBB"/>
<path fill-rule="evenodd" clip-rule="evenodd" d="M537.182 255C532.763 255 529.182 258.581 529.182 263V324C529.182 328.418 532.763 332 537.182 332L537.182 340L545.182 332H607.182C611.6 332 615.182 328.418 615.182 324V263C615.182 258.581 611.6 255 607.182 255H537.182Z" fill="#8871ED"/>
<path d="M563.68 299.199C565.843 301.805 565.315 303.159 565.951 305.149L574.064 308C575.39 307.683 577.355 306.669 577.609 305.149C577.928 303.249 578.538 301.105 580.057 299.199C582.307 296.375 587.171 294.5 587.171 286.804C587.171 277.616 580.358 272 572.118 272C563.879 272 557.182 279.058 557.182 286.804C557.182 293.33 560.975 295.941 563.68 299.199Z" fill="#E8E4F9"/>
<path d="M567.682 287.375L569.557 289.25L570.682 287.75L572.182 289.25L573.682 287.375L574.432 289.25L576.307 287" stroke="#4F37BD"/>
<ellipse cx="567.681" cy="287.749" rx="0.75" ry="2.25" fill="#4F37BD"/>
<path d="M567.306 288.124C567.906 290.824 569.056 299.499 569.556 303.499" stroke="#4F37BD"/>
<path d="M576.681 288.124C576.081 290.824 574.931 299.499 574.431 303.499" stroke="#4F37BD"/>
<ellipse cx="576.682" cy="287.749" rx="0.75" ry="2.25" fill="#4F37BD"/>
<circle cx="571.807" cy="313.625" r="3.375" fill="#281679"/>
<rect x="564.682" y="302.75" width="14.25" height="12" rx="3" fill="#B2A2F3"/>
<path fill-rule="evenodd" clip-rule="evenodd" d="M26.1816 232C21.7634 232 18.1816 235.581 18.1816 240V289C18.1816 293.418 21.7634 297 26.1816 297H77.1816L85.1816 305V296.748C88.6321 295.859 91.1816 292.727 91.1816 289V240C91.1816 235.581 87.5999 232 83.1816 232H26.1816Z" fill="#8871ED"/>
<path d="M40.6816 253L31.1816 264L40.6816 275.5" stroke="#D5CCF9" stroke-width="3"/>
<path d="M68.6816 275.5L78.1816 264.5L68.6816 253" stroke="#D5CCF9" stroke-width="3"/>
<path d="M49.6816 275.5L59.6816 253" stroke="#D5CCF9" stroke-width="3"/>
<path fill-rule="evenodd" clip-rule="evenodd" d="M175.182 37.9996C170.763 37.9996 167.182 41.5813 167.182 45.9996V93.9996C167.182 98.4179 170.763 102 175.182 102H225.182L233.182 110V101.748C236.632 100.859 239.182 97.7273 239.182 93.9996V45.9996C239.182 41.5813 235.6 37.9996 231.182 37.9996H175.182Z" fill="#8871ED"/>
<path d="M225.867 70.039C225.867 80.0019 214.965 89.9976 193.536 86.1594C188.648 81.9374 198.423 79.6345 195.415 75.7963C192.407 71.9581 186.017 79.2507 182.633 76.9477C179.25 74.6448 180.011 67.7482 181.13 64.6656C183.367 58.4996 191.436 51.9996 203.686 51.9996C215.936 51.9996 225.867 60.0761 225.867 70.039Z" fill="#E8E4F9"/>
<path d="M205.867 61.6108C205.867 63.4753 203.282 65.9996 200.092 65.9996C198.287 64.9868 194.859 62.6237 194.317 61.6108C192.512 58.2349 196.483 57.5598 200.092 58.2349C203.701 58.9101 205.867 59.7464 205.867 61.6108Z" fill="#B2A2F3"/>
<path d="M206.868 75.096C206.868 76.9605 209.453 79.4847 212.643 79.4847C214.447 78.472 217.876 76.1088 218.418 75.096C220.222 71.72 215.189 70.9848 212.643 73.4845C209.033 74.1597 206.868 73.2315 206.868 75.096Z" fill="#FF6E6E"/>
<path d="M209.96 62.4777C209.118 62.8413 208.678 63.8172 208.831 64.5061C209.593 67.9349 213.616 68.4618 215.873 67.3765C217.816 66.4422 217.131 62.7973 216.749 61.7364C216.366 60.6754 215.069 59.1274 213.655 59.9073C213.019 60.2578 212.825 61.1943 212.399 61.7364C211.972 62.2784 210.885 62.0781 209.96 62.4777Z" fill="#FF9B2A"/>
<ellipse cx="378.594" cy="254.556" rx="3.80607" ry="7.29126" transform="rotate(143.248 378.594 254.556)" fill="#FFDBD0"/>
<path d="M386.598 262.207C382.884 264.33 382.318 266.692 382.499 267.607C388.351 277.85 401.926 300.528 409.402 309.3C418.747 320.264 448.502 332.814 455.779 334.77C463.055 336.726 466.404 324.622 469.395 320.875C472.386 317.127 462.811 309.352 461.494 307.047C460.177 304.743 425.34 294.078 416.308 289.049C409.082 285.026 397.464 269.246 392.558 261.859C392.119 261.091 390.313 260.085 386.598 262.207Z" fill="#26BFCE"/>
<path d="M454.182 495.64V487L460.182 489.4V495.64C459.34 496.76 457.403 499 456.392 499C455.382 499 454.497 496.76 454.182 495.64Z" fill="#FFBDA9"/>
<path d="M503.667 493.499L499.182 486.115L505.556 485.051L508.795 490.384C508.657 491.778 508.165 494.698 507.301 495.223C506.437 495.748 504.519 494.292 503.667 493.499Z" fill="#FFBDA9"/>
<path d="M442.541 438.384C440.079 421.153 441.515 394.282 442.541 383L494.869 390.692C495.126 407.359 496.101 442.692 497.947 450.692C499.794 458.692 504.873 478.128 507.182 486.846L500.256 490.692C494.869 479.666 483.48 456.23 481.018 450.692C478.555 445.153 471.784 422.743 468.706 412.23C465.884 419.666 460.241 436.692 460.241 445.307V493H452.546C450.237 481.974 445.004 455.615 442.541 438.384Z" fill="#331E94"/>
<path d="M461.182 507C462.682 501.5 461.182 495.5 461.182 495.5L450.182 494C449.852 495.77 450.146 494.25 446.182 498.5C441.227 503.812 436.434 494.687 430.488 500C425.731 504.25 427.506 507 427.506 507C427.506 507 438.106 508.5 444.682 508.5C451.258 508.5 454.182 508.5 461.182 507Z" fill="#281679"/>
<path d="M515.182 501C513.682 494 511.681 489.5 511.681 489.5L498.681 492.5C498.333 494.27 500.864 492.25 496.681 496.5C491.453 501.812 490.956 494.187 484.681 499.5C479.662 503.75 482.681 507 482.681 507C482.681 507 492.726 507.976 498.681 507C504.637 506.023 511.681 504 515.182 501Z" fill="#331E94"/>
<path d="M441.182 322.5C439.604 329.5 439.604 388 439.604 388C441.131 389.528 444.182 392.051 451.682 392.051C461.865 392.051 461.388 390.5 467.682 390.5C475.182 390.5 471.182 393 482.682 394.5C489.682 395.413 494.047 393.07 496.082 392.051L497.182 333C497.182 324.895 494.024 315.457 488.682 311C479.523 303.359 462.287 303.707 456.182 306C451.297 307.833 442.76 315.5 441.182 322.5Z" fill="#29C8D8"/>
<path d="M462.182 306.5V297.5L471.682 300V306.5C470.348 307.666 467.282 310 465.682 310C464.082 310 462.682 307.666 462.182 306.5Z" fill="#FECBBB"/>
<path d="M479.53 272H457.812C457.812 272 449.643 292.649 457.812 299.363C464.41 304.787 471.417 303.6 478.806 299.363C486.045 295.212 490.182 286.941 490.182 281.004C490.182 276.255 479.53 272 479.53 272Z" fill="#FFDBD0"/>
<path d="M453.413 275.062C461.781 279.768 473.734 271.532 477.32 275.062C478.277 276.944 476.921 285.259 476.124 289.182C477.319 287.221 480.666 283.769 484.491 285.652C489.272 288.005 482.286 296.641 487.682 290.5C490.317 287.5 495.75 284 492.682 270.5C490.523 261 479.682 259.766 477.319 259.766C477.318 257.413 472.538 253.883 471.342 251.529C470.147 249.176 466.561 250.353 464.171 251.529C461.78 252.706 461.78 248 459.389 248C456.999 248 456.999 256.236 455.803 256.236C454.847 256.236 453.413 252.5 451.022 251.529C449.429 252.706 447.079 255.893 446.241 258.589C445.182 262 445.046 270.355 453.413 275.062Z" fill="#4F37BD"/>
<ellipse cx="385.949" cy="362.825" rx="3.80607" ry="7.29126" transform="rotate(98.3577 385.949 362.825)" fill="#FFDBD0"/>
<path d="M394.182 362.711C394.182 357.808 397.127 356.582 398.599 356.582C407.435 356.582 427.579 355.882 437.475 353.081C449.844 349.579 460.447 328.567 463.981 324.189C467.515 319.812 466.631 308.43 482.535 310.181C498.439 311.932 494.021 331.193 492.254 336.446C490.487 341.699 457.796 366.213 452.495 368.839C448.254 370.941 414.797 369.715 398.599 368.839C397.127 368.839 394.182 367.614 394.182 362.711Z" fill="#2ED2E2"/>
<path d="M273.093 338.002C270.012 334.189 266.951 335.086 265.806 336.011C258.933 341.564 242.823 353.678 233.365 357.718C221.542 362.767 199.638 354.385 194.59 351.9C187.682 348.5 182.625 341.308 171.355 352.664C160.084 364.02 175.624 376.227 180.3 379.202C184.976 382.178 225.81 380.703 231.584 379.415C236.203 378.384 261.458 356.406 273.508 345.546C274.654 344.62 276.174 341.816 273.093 338.002Z" fill="#FF951D"/>
<ellipse cx="280.029" cy="332.847" rx="3.80607" ry="7.29126" transform="rotate(45 280.029 332.847)" fill="#FFDBD0"/>
<path d="M179.135 416.476C186.939 415.062 211.682 405.867 230.571 402.331C240.682 402.331 239.069 407.594 238.182 412L217.268 431.506L187.116 443L160.512 440.347L121.492 427.086C112.624 421.486 93.0162 416.476 101.095 405.867C105.182 400.5 113.333 402.331 121.492 404.5C134.794 408.036 169.38 418.245 179.135 416.476Z" fill="#36296F"/>
<path d="M170.63 346.099C161.742 346.099 147.521 345.206 142.188 348.778C134.188 351.088 114.338 388.964 117.301 397.894C119.078 403.252 146.632 414.861 166.186 417.54C185.74 420.219 190.682 414.5 198.182 411.5C199.682 405 201.182 399 201.182 391.5C201.182 379.277 200.181 357.251 192.182 351C184.182 344.749 179.519 346.099 170.63 346.099Z" fill="#FF9B2A"/>
<path d="M172.67 347.5V342L162.17 341L163.17 347.5C164.503 348.666 167.57 351 169.17 351C170.77 351 172.17 348.666 172.67 347.5Z" fill="#FECBBB"/>
<path d="M155.17 314.444H176.17C176.17 314.444 184.069 334.064 176.17 340.444C169.79 345.597 155.17 340.444 155.17 340.444V314.444Z" fill="#FFDBD0"/>
<path d="M153.17 298.444C146.67 298.444 146.17 305.944 144.17 310.944C141.67 311.777 136.47 314.044 135.67 316.444C134.67 319.444 135.67 323.444 133.67 328.944C131.67 334.444 136.17 334.944 140.67 335.944C145.17 336.944 144.17 341.944 148.17 343.944C152.17 345.944 158.67 340.944 155.67 339.944C152.67 338.944 158.67 332.444 158.67 328.944C158.67 326.144 156.67 319.444 155.67 316.444C155.337 315.944 155.47 314.944 158.67 314.944C162.67 314.944 171.67 317.444 176.67 318.444C181.67 319.444 181.17 317.444 183.17 313.444C185.17 309.444 188.17 310.944 190.67 308.444C193.17 305.944 188.17 305.444 188.17 302.444C188.17 299.444 188.67 298.444 188.17 295.444C187.67 292.444 176.67 294.444 173.67 298.444C170.67 302.444 159.67 298.444 153.17 298.444Z" fill="#331E94"/>
<path d="M133.182 379C133.182 377.343 134.525 376 136.182 376H200.182C201.838 376 203.182 377.343 203.182 379V417C203.182 417.552 202.734 418 202.182 418H134.182C133.629 418 133.182 417.552 133.182 417V379Z" fill="#9B87EF"/>
<path d="M133.182 419C133.182 418.447 133.629 418 134.182 418H202.182C202.734 418 203.182 418.447 203.182 419V420C203.182 421.656 201.838 423 200.182 423H136.182C134.525 423 133.182 421.656 133.182 420V419Z" fill="#6F52ED"/>
<path fill-rule="evenodd" clip-rule="evenodd" d="M165.182 393V400.134H167.934C169.274 400.134 171.556 399.591 171.556 396.549C171.556 393.507 169.274 393 167.934 393H165.182ZM167.318 395.354V397.744H168.226C168.667 397.744 169.419 397.562 169.419 396.543C169.419 395.524 168.667 395.354 168.226 395.354H167.318Z" fill="#D5CCF9"/>
<path d="M121.457 465.8C120 458.858 131.182 454 144.683 452C148.19 452.694 149.097 454.676 149.923 456.591C150.956 458.984 142.862 465.34 137.995 467.44C133.128 469.541 122.913 472.742 121.457 465.8Z" fill="#281679"/>
<path d="M146.619 452.429L154.556 449.015L154.722 455.475L148.99 457.94C147.09 459.039 143.915 461.662 141.341 457.875C140.753 453.675 145.715 453.161 146.619 452.429Z" fill="#FFBDA9"/>
<path d="M211.181 409.5C204.589 412.971 192.557 423.812 183.182 428.5C172.182 434 152.682 444.5 149.182 448C150.965 453.326 154.504 457.5 157.182 457.5C159.859 457.5 209.182 439.721 223.533 432.583C236.027 426.369 246.333 414 239.596 405.066C234.269 398 219.213 405.271 211.181 409.5Z" fill="#3B2B7E"/>
<path d="M218.41 468.2C219.964 460.085 202.721 457.314 193.29 455.826C191.313 455.514 186.125 462.017 189.538 464.78C193.773 468.21 216.468 478.343 218.41 468.2Z" fill="#281679"/>
<path d="M188.661 461.519L181.182 457.193L186.264 453.201L191.665 456.326C193.682 457.193 197.682 458.173 196.182 462.499C193.165 465.479 189.789 461.807 188.661 461.519Z" fill="#FFBDA9"/>
<path d="M188.182 450.5C188.182 456.5 185.715 459.685 181.682 461.5C170.197 458.532 144.694 447.5 136.182 443C125.551 437.38 105.822 429.931 100.522 421.917C92.9698 410.5 99.2795 399 115.182 404.499C124.366 407.676 142.044 421.027 144.694 425.479C147.344 429.931 175.38 444.151 188.182 450.5Z" fill="#473591"/>
</svg>
