<svg width="237" height="200" viewBox="0 0 237 200" fill="none" xmlns="http://www.w3.org/2000/svg">
<path d="M44.8065 63.0112C29.5956 69.5977 12.7146 88.738 15.4802 101.218C29.245 163.333 110.857 171.418 151.626 151.756C186.724 134.83 174.361 68.8013 167.451 49.5814C160.542 30.3615 137.107 2.31874 111.562 16.4459C100.079 22.7969 96.575 39.7617 88.8696 49.5814C81.1642 59.4011 61.5247 55.772 44.8065 63.0112Z" fill="#6F52ED" fill-opacity="0.2"/>
<path d="M133.945 70.891C133.175 70.5819 129.001 69.2813 127.01 68.3798V76.879H133.945C135.101 76.1064 137.798 77.4585 137.798 73.7884C137.798 72.4363 134.908 71.2773 133.945 70.891Z" fill="#8871ED"/>
<path d="M101.724 42.2451C104.71 41.8169 109.674 42.245 111.323 45.857L114.105 50.4928C113.394 51.7418 108.656 52.6291 106.523 53.4855C103.857 54.556 105.629 59.945 108.711 62.0054C112.756 64.7097 117.365 69.6553 119.498 73.4021C121.631 77.1489 113.989 90.4184 111.323 93.0947C108.656 95.771 101.724 98.4473 98.5244 99.5178C95.3249 100.588 83.5936 101.124 81.4606 93.63C79.3276 86.1364 84.6601 83.4601 88.3927 81.319C92.1252 79.178 90.5257 73.8254 89.9924 71.1491C89.4592 68.4728 87.3261 61.5144 88.3927 56.6971C89.4592 51.8798 97.9912 42.7804 101.724 42.2451Z" fill="#FF6E6E"/>
<path d="M106.207 48.7543C105.526 50.005 105.822 51.3942 106.207 52.038C106.72 52.2312 107.748 52.5016 107.748 52.038C107.748 51.4586 108.326 50.4927 109.481 48.7543C110.406 47.3635 111.665 46.3719 112.178 46.05C109.481 45.4704 107.993 45.4705 106.207 48.7543Z" fill="#4F37BD"/>
<path d="M120.846 64.5937C123.404 63.7273 123.775 55.6042 122.709 52.5354C120.756 51.6328 115.997 49.9359 112.588 50.3692C109.178 50.8024 107.748 54.418 107.748 56.4037C109.346 58.7505 108.904 62.585 114.105 64.5937C116.156 65.3861 117.65 65.6769 120.846 64.5937Z" fill="#FFDBD0"/>
<path d="M119.693 56.0945C117.253 56.6096 111.834 57.5625 109.676 57.2535V60.3441C107.748 57.2535 107.363 57.833 106.399 56.0945C105.436 54.356 106.205 51.2652 108.518 48.1748C109.513 46.8459 113.336 44.1184 117.959 44.6979C122.582 45.2774 122.775 48.3679 122.775 50.6859C124.624 51.6131 124.187 54.6779 123.738 56.0945H121.619C120.977 54.8067 119.693 52.3085 119.693 52.6175V56.0945Z" fill="#FF6E6E"/>
<path d="M114.489 65.2891C112.622 65.7998 109.482 67.2208 106.207 69.7319C104.666 71.4705 98.3086 83.2534 98.5012 86.1508C98.6939 89.0483 106.206 88.2756 111.6 89.4346C115.915 90.3618 126.496 89.0483 131.248 88.2756L131.245 88.1869C131.052 81.9905 130.715 71.1777 129.129 69.7319C127.01 67.8003 123.735 66.8346 121.424 65.6755C119.112 64.5165 116.608 64.7097 114.489 65.2891Z" fill="#8871ED"/>
<path d="M119.498 66.6414V64.5166L115.453 64.1302L115.838 66.6414C116.352 67.0921 117.533 67.9935 118.15 67.9935C118.766 67.9935 119.305 67.0921 119.498 66.6414Z" fill="#FFDBD0"/>
<path d="M210.032 74.1747C203.248 61.5435 149.548 63.4939 124.121 84.992C104.473 101.604 88.1858 108.791 81.7434 142.168C77.1203 166.121 106.555 175.61 124.121 187.755C141.687 199.9 212.31 183.428 223.516 166.121C227.277 160.313 236.229 147.963 227.754 136.76C216.341 121.674 218.513 89.9638 210.032 74.1747Z" fill="#FF9B2A" fill-opacity="0.2"/>
<path d="M190.962 71.1711C185.569 75.1889 179.854 86.6242 177.671 91.8397C178.698 93.063 181.408 95.3938 184.028 94.9303C187.302 94.3508 196.356 86.0447 201.557 82.7609C206.758 79.4771 210.995 66.9215 209.069 65.3762C207.143 63.8309 197.704 66.1489 190.962 71.1711Z" fill="#8871ED"/>
<path d="M32.892 137.313C37.4425 142.27 49.3826 146.769 54.7839 148.399C55.8893 147.246 57.9165 144.3 57.1819 141.736C56.2636 138.531 47.0764 130.374 43.2741 125.532C39.4719 120.69 26.5756 117.781 25.2453 119.864C23.9149 121.947 27.204 131.117 32.892 137.313Z" fill="#543EB6"/>
<path d="M22.222 158.781C27.1911 163.316 37.4377 165.985 42.9614 167.13C43.961 165.884 45.7209 162.77 44.7634 160.281C43.5665 157.17 33.6972 149.858 29.4834 145.371C25.2697 140.885 9.316 145.371 8.16015 150.281C7.5934 152.689 16.0106 153.112 22.222 158.781Z" fill="#8871ED"/>
<path d="M197.051 83.5522C193.089 85.5333 187.617 91.9246 185.376 94.8726V122.466C189.268 120.815 197.759 116.523 200.589 112.56C204.127 107.608 204.404 98.5984 209.433 94.8726C216.774 89.4346 221.108 89.9199 225.354 79.3071C231.038 65.096 219.471 68.3417 214.386 71.5244C206.758 76.2995 205.542 79.3071 197.051 83.5522Z" fill="#B2A2F3"/>
<path d="M222.168 74.1747C217.416 79.0682 207.336 88.8552 205.024 90.5937C201.25 93.432 196.099 100.703 193.081 104.888" stroke="#8871ED"/>
<path d="M216.774 79.5833C216.774 79.5833 217.352 76.879 216.774 74.1747" stroke="#8871ED"/>
<path d="M206.95 88.8552C206.95 88.8552 207.336 84.7988 206.95 81.515" stroke="#8871ED"/>
<path d="M214.655 81.7082C214.848 80.9355 215.041 79.0039 214.655 76.6859M212.344 83.833C212.344 83.833 216.582 83.2535 219.086 83.833" stroke="#8871ED"/>
<path d="M202.327 93.1048C202.327 92.4867 203.29 87.8894 202.327 82.8671M200.208 95.4228C200.208 95.4228 204.446 94.6501 206.758 95.4228" stroke="#8871ED"/>
<path d="M31.1177 149.653C33.8172 153.168 41.1236 157.318 44.4393 158.954L71.4504 153.637C69.0876 150.127 63.2567 142.604 58.8351 140.584C53.3081 138.058 44.4357 139.522 39.8233 135.293C33.0915 129.121 30.5389 126.931 19.3354 124.801C3.53806 121.797 9.64523 136.775 15.8605 139.09C24.1438 142.175 25.3329 142.12 31.1177 149.653Z" fill="#B2A2F3"/>
<path d="M16.0578 129.239C21.3603 130.702 33.1632 137.124 37.2468 140.814C41.0987 144.295 48.0906 147.282 52.7669 149.444" stroke="#8871ED"/>
<path d="M21.4516 131.351C21.4516 131.351 18.8353 131.556 16.2997 132.644" stroke="#8871ED"/>
<path d="M34.5502 138.884C34.5502 138.884 29.9275 138.886 27.2268 140.303" stroke="#8871ED"/>
<path d="M25.0993 133.028C24.3059 132.987 22.3779 133.17 20.1826 133.996M27.6153 134.439C27.6153 134.439 26.2425 130.835 26.3293 128.261" stroke="#8871ED"/>
<path d="M39.4582 142.622C38.8532 142.741 34.1684 142.679 29.4372 144.594M42.1337 144.259C42.1337 144.259 40.5643 140.24 40.8771 137.818" stroke="#8871ED"/>
<path d="M214.041 151.774C209.972 150.689 206.64 152.67 205.482 153.796C205.316 154.422 205.867 156.023 209.394 157.423C213.803 159.174 216.85 157.403 217.401 156.402C217.953 155.401 218.323 152.917 214.041 151.774Z" fill="#9B87EF"/>
<path d="M213.444 138.71C210.105 141.275 209.638 145.135 209.822 146.744C210.215 147.258 211.816 147.802 215.074 145.859C219.145 143.431 219.605 139.927 219.151 138.876C218.696 137.825 216.959 136.009 213.444 138.71Z" fill="#FF6E6E"/>
<path d="M206.86 164.793C202.652 164.668 200.018 161.815 199.226 160.404C199.245 159.757 200.226 158.381 204.004 158.049C208.726 157.634 211.146 160.203 211.392 161.321C211.637 162.438 211.289 164.925 206.86 164.793Z" fill="#FFA2A2"/>
<path d="M204.401 143.942C205.696 147.959 203.899 151.401 202.838 152.62C202.224 152.818 200.6 152.352 199.02 148.893C197.045 144.571 198.647 141.426 199.615 140.821C200.583 140.216 203.038 139.714 204.401 143.942Z" fill="#9B87EF"/>
<path d="M196.965 153.648C198.756 156.371 198.125 159.306 197.586 160.433C197.17 160.708 195.865 160.696 193.978 158.449C191.619 155.639 192.165 152.966 192.761 152.315C193.357 151.664 195.081 150.782 196.965 153.648Z" fill="#B2A2F3"/>
<path d="M216.351 140.903C211.473 145.25 201.016 155.078 198.21 159.614C195.404 164.15 194.36 167.299 194.189 168.306" stroke="#6F52ED"/>
<path d="M201.458 144.11C201.878 146.137 202.679 150.984 202.526 154.16" stroke="#6F52ED"/>
<path d="M213.795 154.868C211.03 154.131 204.904 152.956 202.523 154.157" stroke="#6F52ED"/>
<path d="M207.523 161.241C205.096 160.306 200.03 159.242 197.589 160.886" stroke="#6F52ED"/>
<path d="M176.224 65.1156C172.527 65.3542 170.299 67.9461 169.647 69.2121C169.684 69.781 170.589 70.9629 173.922 71.1395C178.088 71.3602 180.137 69.0247 180.318 68.0338C180.498 67.043 180.115 64.8645 176.224 65.1156Z" fill="#D5CCF9"/>
<path d="M171.436 55.0858C169.083 58.5856 169.862 62.3934 170.545 63.8598C171.081 64.2218 172.77 64.225 175.242 61.3417C178.332 57.7377 177.659 54.2695 176.896 53.4187C176.133 52.5678 173.912 51.402 171.436 55.0858Z" fill="#FFA1A1"/>
<path d="M174.233 57.1337C170.988 62.8142 166.375 71.8439 165.153 77.0416C163.931 82.2392 163.939 85.5584 164.096 86.5683" stroke="#6F52ED"/>
<path d="M176.349 67.9508C174.23 67.9512 169.386 68.5901 167.51 70.4906" stroke="#6F52ED"/>
<path d="M45.4122 60.0867C49.6206 60.0867 52.3339 62.8631 53.1645 64.2513C53.1645 64.8991 52.2232 66.3058 48.4576 66.7501C43.7507 67.3054 41.2592 64.8066 40.9823 63.696C40.7055 62.5854 40.9825 60.0867 45.4122 60.0867Z" fill="#FF6E6E"/>
<path d="M49.3317 47.6182C51.9027 50.9592 51.3684 54.8095 50.7798 56.317C50.2684 56.7128 48.5827 56.8248 45.9315 54.1067C42.6176 50.7091 43.0683 47.2045 43.7759 46.3063C44.4835 45.408 46.6256 44.1014 49.3317 47.6182Z" fill="#B2A2F3"/>
<path d="M49.0209 74.5248C53.1179 75.4895 56.3922 73.4086 57.5173 72.2475C57.665 71.6168 57.0692 70.0316 53.5046 68.7359C49.0488 67.1164 46.0537 68.9779 45.531 69.9956C45.0083 71.0133 44.7085 73.5095 49.0209 74.5248Z" fill="#B2A2F3"/>
<path d="M56.732 55.0008C54.4536 58.549 55.3125 62.3398 56.0267 63.7916C56.5698 64.1424 58.2589 64.1103 60.67 61.176C63.6839 57.5081 62.9378 54.0547 62.1565 53.22C61.3753 52.3853 59.1302 51.2661 56.732 55.0008Z" fill="#9B87EF"/>
<path d="M61.4342 66.2968C59.0079 68.4667 58.8673 71.4663 59.1002 72.6949C59.4324 73.0684 60.6964 73.394 63.0951 71.7086C66.0934 69.6017 66.2486 66.8765 65.8387 66.0935C65.4289 65.3105 63.9879 64.0128 61.4342 66.2968Z" fill="#B2A2F3"/>
<path d="M45.966 48.981C49.5653 54.4413 57.1515 66.639 58.702 71.7476C60.2524 76.8562 60.4555 80.1694 60.3632 81.1874" stroke="#6F52ED"/>
<path d="M59.5326 55.9221C58.6097 57.773 56.5978 62.2523 55.9333 65.3619" stroke="#6F52ED"/>
<path d="M44.8585 63.1407C47.7195 63.1407 53.9398 63.585 55.9333 65.3619" stroke="#6F52ED"/>
<path d="M49.2885 70.9149C51.8726 70.6373 57.0408 70.9148 58.9789 73.1359" stroke="#6F52ED"/>
<path d="M136.545 49.0442C134.873 51.3928 134.655 55.2033 134.755 56.815L139.318 59.5078C141.43 58.0187 145.934 54.6083 147.053 52.8798C148.171 51.1512 148.162 44.7235 148.017 41.7258C147.09 42.9627 145.013 45.6014 144.117 46.2608C142.998 47.0851 138.634 46.1085 136.545 49.0442Z" fill="#E8E4F9"/>
<path fill-rule="evenodd" clip-rule="evenodd" d="M139.48 47.1127C139.844 47.281 140.184 47.5066 140.483 47.8031C141.515 48.8288 141.89 49.7854 142.206 50.5915C142.491 51.3165 142.727 51.9197 143.351 52.3421C143.938 52.7393 145.051 53.3694 146.214 53.8952C146.574 53.52 146.864 53.176 147.054 52.8809C148.173 51.1527 148.161 44.7253 148.016 41.7276C147.089 42.9642 145.012 45.6023 144.117 46.2615C143.738 46.5404 142.987 46.6129 142.078 46.7006C141.285 46.7772 140.371 46.8654 139.48 47.1127Z" fill="#8871ED"/>
<path d="M133.38 56.7408C133.683 56.2794 134.302 56.1522 134.763 56.4568L138.248 58.759C138.709 59.0636 138.837 59.6845 138.534 60.1459L109.883 103.765C108.948 105.19 107.035 105.582 105.612 104.642V104.642C104.189 103.702 103.793 101.785 104.729 100.36L133.38 56.7408Z" fill="#6F52ED"/>
<ellipse cx="118.728" cy="179.063" rx="100.936" ry="6.37441" fill="#D5CCF9"/>
<path d="M44.374 89.1747C44.374 80.8905 51.0897 74.1747 59.374 74.1747H182.704C190.989 74.1747 197.704 80.8905 197.704 89.1747V168.052H44.374V89.1747Z" fill="#281679"/>
<path d="M53.2347 92.6739C53.2347 87.1511 57.7119 82.674 63.2347 82.674H178.843C184.366 82.674 188.843 87.1511 188.843 92.674V165.734H53.2347V92.6739Z" fill="#E8E4F9"/>
<path d="M29.3491 165.734H212.344V165.734C212.344 172.989 206.463 178.87 199.209 178.87H42.4843C35.2299 178.87 29.3491 172.989 29.3491 165.734V165.734Z" fill="#190C52"/>
<path d="M53.2347 90.7868C53.2347 86.3062 56.867 82.674 61.3476 82.674H180.731C185.211 82.674 188.843 86.3062 188.843 90.7868V90.7868H53.2347V90.7868Z" fill="#8871ED"/>
<ellipse cx="183.643" cy="86.7304" rx="1.73363" ry="1.73847" fill="#FF6E6E"/>
<ellipse cx="177.864" cy="86.7304" rx="1.73363" ry="1.73847" fill="#B2A2F3"/>
<ellipse cx="172.085" cy="86.7304" rx="1.73363" ry="1.73847" fill="#B2A2F3"/>
<rect x="102.547" y="105.467" width="80.9029" height="56.0175" rx="15" fill="#D5CCF9"/>
<rect x="102.547" y="95.0364" width="80.9029" height="6.56757" rx="3.28379" fill="#D5CCF9"/>
<rect x="56.3168" y="95.0364" width="40.0662" height="33.6105" rx="4" fill="#D5CCF9"/>
<rect x="56.3168" y="132.897" width="40.0662" height="1.93164" rx="0.965819" fill="#D5CCF9"/>
<rect x="56.3168" y="145.645" width="40.0662" height="1.93164" rx="0.965819" fill="#D5CCF9"/>
<rect x="56.3168" y="137.146" width="40.0662" height="1.93164" rx="0.965819" fill="#D5CCF9"/>
<rect x="56.3168" y="149.895" width="40.0662" height="1.93164" rx="0.965819" fill="#D5CCF9"/>
<rect x="56.3168" y="141.396" width="40.0662" height="1.93164" rx="0.965819" fill="#D5CCF9"/>
<rect x="56.3168" y="154.145" width="40.0662" height="1.93164" rx="0.965819" fill="#D5CCF9"/>
<path d="M117.17 77.9836L117.742 79.8877C121.733 79.9675 130.405 80.0402 133.161 79.6925C136.606 79.258 138.448 75.3107 137.941 74.014C137.434 72.7173 135.257 71.8471 132.417 72.2161C130.145 72.5113 121.306 76.1841 117.17 77.9836Z" fill="#9E89F4"/>
<ellipse rx="0.964735" ry="2.81214" transform="matrix(0.634266 0.773115 -0.771376 0.636379 114.96 80.1872)" fill="#FFDBD0"/>
<path d="M113.468 68.18L112.356 66.5333C108.523 67.6486 100.223 70.1681 97.695 71.3229C94.5347 72.7664 93.9484 77.0845 94.8176 78.171C95.6868 79.2575 98.0233 79.4383 100.625 78.2382C102.706 77.2781 110.054 71.1327 113.468 68.18Z" fill="#9E89F4"/>
<ellipse rx="0.963236" ry="2.81651" transform="matrix(0.980016 -0.19892 0.197858 0.980231 113.294 64.7647)" fill="#FECBBB"/>
<path fill-rule="evenodd" clip-rule="evenodd" d="M211.868 98.5134C207.45 98.5134 203.868 102.095 203.868 106.513V120.261C203.868 123.16 205.41 125.698 207.719 127.102H206.95V131.351L210.205 128.088C210.742 128.201 211.298 128.261 211.868 128.261H229C233.418 128.261 237 124.679 237 120.261V106.513C237 102.095 233.418 98.5134 229 98.5134H211.868Z" fill="#8871ED"/>
<path d="M217.159 115.589C217.992 116.595 217.789 117.119 218.034 117.888L221.159 118.989C221.67 118.866 222.427 118.475 222.525 117.888C222.648 117.154 222.883 116.325 223.468 115.589C224.335 114.498 226.209 113.773 226.209 110.8C226.209 107.251 223.584 105.081 220.41 105.081C217.235 105.081 214.655 107.808 214.655 110.8C214.655 113.322 216.117 114.33 217.159 115.589Z" fill="#E8E4F9"/>
<path d="M218.701 111.021L219.423 111.745L219.856 111.166L220.434 111.745L221.012 111.021L221.301 111.745L222.023 110.876" stroke="#4F37BD"/>
<ellipse cx="218.701" cy="111.166" rx="0.288939" ry="0.869237" fill="#4F37BD"/>
<path d="M218.556 111.31C218.787 112.354 219.23 115.705 219.423 117.25" stroke="#4F37BD"/>
<path d="M222.168 111.31C221.937 112.354 221.493 115.705 221.301 117.25" stroke="#4F37BD"/>
<ellipse cx="222.168" cy="111.166" rx="0.288939" ry="0.869237" fill="#4F37BD"/>
<ellipse cx="220.29" cy="121.162" rx="1.30023" ry="1.30386" fill="#281679"/>
<rect x="217.545" y="116.961" width="5.48984" height="4.63593" rx="2.31797" fill="#B2A2F3"/>
<path fill-rule="evenodd" clip-rule="evenodd" d="M15.0045 89.6279C10.5862 89.6279 7.00452 93.2096 7.00452 97.6279V106.739C7.00452 111.157 10.5862 114.739 15.0045 114.739H27.1279C27.9195 114.739 28.6842 114.624 29.4062 114.41L32.8164 117.83V113.58H31.2775C33.586 112.177 35.1279 109.638 35.1279 106.739V97.6279C35.1279 93.2096 31.5462 89.6279 27.1279 89.6279H15.0045Z" fill="#8871ED"/>
<path d="M15.6727 97.7407L12.0128 101.99L15.6727 106.433" stroke="#D5CCF9" stroke-width="3"/>
<path d="M26.4598 106.433L30.1197 102.183L26.4598 97.7407" stroke="#D5CCF9" stroke-width="3"/>
<path d="M19.14 106.433L22.9925 97.7407" stroke="#D5CCF9" stroke-width="3"/>
<path fill-rule="evenodd" clip-rule="evenodd" d="M72.4071 14.6803C67.9888 14.6803 64.4071 18.262 64.4071 22.6803V31.4053C64.4071 35.8236 67.9888 39.4053 72.4071 39.4053H84.1453C84.9368 39.4053 85.7015 39.2903 86.4236 39.0762L89.8337 42.4959V38.2463H88.2949C90.6033 36.843 92.1453 34.3042 92.1453 31.4053V22.6803C92.1453 18.262 88.5635 14.6803 84.1453 14.6803H72.4071Z" fill="#8871ED"/>
<path d="M87.0157 27.058C87.0157 30.907 82.8156 34.7685 74.5601 33.2857C72.6771 31.6547 76.4431 30.765 75.2843 29.2822C74.1254 27.7994 71.6634 30.6167 70.36 29.727C69.0565 28.8374 69.3497 26.173 69.7807 24.9821C70.6426 22.6 73.7512 20.0889 78.4706 20.0889C83.1899 20.0889 87.0157 23.2091 87.0157 27.058Z" fill="#E8E4F9"/>
<path d="M79.3108 23.802C79.3108 24.5223 78.3147 25.4975 77.086 25.4975C76.3907 25.1062 75.0697 24.1933 74.8611 23.802C74.1659 22.4978 75.6954 22.237 77.086 22.4978C78.4765 22.7586 79.3108 23.0817 79.3108 23.802Z" fill="#B2A2F3"/>
<path d="M79.6962 29.0116C79.6962 29.732 80.6923 30.7071 81.9211 30.7071C82.6164 30.3159 83.9373 29.4029 84.1459 29.0116C84.8412 27.7074 82.9019 27.4234 81.9211 28.3891C80.5306 28.65 79.6962 28.2913 79.6962 29.0116Z" fill="#FF6E6E"/>
<path d="M80.8874 24.1369C80.5631 24.2773 80.3935 24.6544 80.4525 24.9205C80.746 26.2452 82.296 26.4487 83.1654 26.0294C83.9139 25.6685 83.6503 24.2604 83.5029 23.8505C83.3556 23.4406 82.8558 22.8426 82.3111 23.1438C82.0662 23.2793 81.9914 23.6411 81.8271 23.8505C81.6628 24.0599 81.244 23.9825 80.8874 24.1369Z" fill="#FF9B2A"/>
<ellipse rx="1.46776" ry="2.81401" transform="matrix(-0.800433 0.599423 -0.597281 -0.802032 145.854 98.3421)" fill="#FFDBD0"/>
<path d="M148.938 101.298C147.507 102.118 147.289 103.03 147.358 103.384C149.613 107.341 154.843 116.102 157.723 119.491C161.323 123.727 172.786 128.575 175.59 129.331C178.393 130.087 179.683 125.411 180.835 123.963C181.988 122.515 178.299 119.511 177.791 118.621C177.284 117.731 163.863 113.611 160.383 111.668C157.6 110.114 153.124 104.017 151.234 101.163C151.065 100.867 150.369 100.478 148.938 101.298Z" fill="#26BFCE"/>
<path d="M174.974 191.479V188.141L177.286 189.069V191.479C176.962 191.912 176.215 192.777 175.826 192.777C175.437 192.777 175.096 191.912 174.974 191.479Z" fill="#FFBDA9"/>
<path d="M194.039 190.652L192.311 187.8L194.766 187.389L196.014 189.449C195.961 189.988 195.772 191.116 195.439 191.318C195.106 191.521 194.367 190.959 194.039 190.652Z" fill="#FFBDA9"/>
<path d="M170.49 169.36C169.541 162.703 170.095 152.322 170.49 147.963L190.649 150.935C190.748 157.374 191.124 171.024 191.835 174.115C192.547 177.205 194.503 184.714 195.393 188.082L192.725 189.568C190.649 185.308 186.262 176.254 185.313 174.115C184.364 171.975 181.756 163.317 180.57 159.256C179.483 162.129 177.309 168.706 177.309 172.035V190.459H174.344C173.455 186.2 171.439 176.017 170.49 169.36Z" fill="#331E94"/>
<path d="M177.671 195.868C178.249 193.743 177.671 191.425 177.671 191.425L173.434 190.846C173.306 191.53 173.42 190.942 171.893 192.584C169.984 194.637 168.137 191.111 165.846 193.164C164.014 194.806 164.698 195.868 164.698 195.868C164.698 195.868 168.781 196.448 171.315 196.448C173.848 196.448 174.974 196.448 177.671 195.868Z" fill="#281679"/>
<path d="M198.475 193.55C197.897 190.846 197.126 189.107 197.126 189.107L192.118 190.266C191.984 190.95 192.959 190.17 191.348 191.812C189.333 193.864 189.142 190.918 186.725 192.971C184.791 194.612 185.954 195.868 185.954 195.868C185.954 195.868 189.824 196.245 192.118 195.868C194.412 195.491 197.126 194.709 198.475 193.55Z" fill="#331E94"/>
<path d="M169.966 124.591C169.358 127.295 169.359 149.895 169.359 149.895C169.947 150.485 171.122 151.46 174.011 151.46C177.934 151.46 177.75 150.861 180.175 150.861C183.065 150.861 181.524 151.827 185.954 152.406C188.651 152.759 190.333 151.854 191.117 151.46L191.54 128.647C191.54 125.516 190.324 121.87 188.266 120.148C184.737 117.196 178.097 117.331 175.745 118.216C173.863 118.925 170.574 121.886 169.966 124.591Z" fill="#29C8D8"/>
<path d="M178.056 118.409V114.932L181.716 115.898V118.409C181.203 118.86 180.021 119.761 179.405 119.761C178.788 119.761 178.249 118.86 178.056 118.409Z" fill="#FECBBB"/>
<path d="M184.74 105.081H176.373C176.373 105.081 173.226 113.058 176.373 115.652C178.915 117.748 181.614 117.289 184.461 115.652C187.25 114.049 188.844 110.853 188.844 108.56C188.844 106.725 184.74 105.081 184.74 105.081Z" fill="#FFDBD0"/>
<path d="M174.678 106.264C177.902 108.082 182.507 104.9 183.888 106.264C184.257 106.991 183.735 110.204 183.428 111.719C183.888 110.961 185.178 109.628 186.651 110.355C188.493 111.264 185.802 114.601 187.88 112.228C188.896 111.069 190.989 109.717 189.807 104.502C188.975 100.831 184.799 100.355 183.888 100.355C183.888 99.4457 182.046 98.082 181.586 97.1728C181.125 96.2637 179.744 96.7183 178.823 97.1728C177.902 97.6274 177.902 95.8091 176.981 95.8091C176.06 95.8091 176.06 98.9911 175.599 98.9911C175.231 98.9911 174.678 97.5476 173.757 97.1728C173.143 97.6274 172.238 98.8584 171.915 99.9002C171.507 101.218 171.455 104.446 174.678 106.264Z" fill="#4F37BD"/>
<ellipse rx="1.4703" ry="2.80914" transform="matrix(-0.144956 0.989438 -0.989322 -0.14575 148.688 140.169)" fill="#FFDBD0"/>
<path d="M151.859 140.125C151.859 138.231 152.994 137.758 153.561 137.758C156.965 137.758 164.726 137.487 168.538 136.405C173.303 135.052 177.388 126.934 178.75 125.243C180.111 123.552 179.771 119.155 185.898 119.832C192.025 120.508 190.323 127.949 189.642 129.978C188.961 132.008 176.367 141.478 174.325 142.493C172.691 143.305 159.802 142.831 153.561 142.493C152.994 142.493 151.859 142.019 151.859 140.125Z" fill="#2ED2E2"/>
<path d="M105.21 130.58C104.023 129.106 102.843 129.453 102.402 129.811C99.7544 131.956 93.548 136.636 89.9042 138.196C85.3496 140.147 76.911 136.909 74.9664 135.949C72.3048 134.635 70.3568 131.857 66.0147 136.244C61.6727 140.631 67.6596 145.347 69.4609 146.496C71.2622 147.646 86.9937 147.076 89.2183 146.578C90.9979 146.18 100.727 137.69 105.37 133.494C105.811 133.136 106.397 132.053 105.21 130.58Z" fill="#FF951D"/>
<ellipse rx="1.46834" ry="2.8129" transform="matrix(0.70612 0.708092 -0.70612 0.708092 107.882 128.588)" fill="#FFDBD0"/>
<path d="M69.0123 160.896C72.0188 160.35 81.5508 156.798 88.828 155.431C92.7231 155.431 92.1017 157.465 91.76 159.167L83.7031 166.703L72.087 171.143L61.8374 170.118L46.805 164.995C43.3885 162.832 35.8347 160.896 38.947 156.798C40.5216 154.724 43.6619 155.431 46.805 156.269C51.9297 157.636 65.2541 161.579 69.0123 160.896Z" fill="#36296F"/>
<path d="M65.7357 133.708C62.3115 133.708 56.8327 133.363 54.7782 134.743C51.6964 135.635 44.0491 150.267 45.1904 153.717C45.8752 155.787 56.4903 160.272 64.0236 161.307C71.5568 162.342 73.4605 160.133 76.3499 158.974C76.9278 156.463 77.5057 154.145 77.5057 151.247C77.5057 146.525 77.1202 138.016 74.0384 135.601C70.9566 133.186 69.1599 133.708 65.7357 133.708Z" fill="#FF9B2A"/>
<path d="M66.5215 134.249V132.124L62.4763 131.738L62.8616 134.249C63.3753 134.699 64.5567 135.601 65.1731 135.601C65.7895 135.601 66.3289 134.699 66.5215 134.249Z" fill="#FECBBB"/>
<path d="M59.7795 121.478H67.8698C67.8698 121.478 70.9129 129.058 67.8698 131.523C65.412 133.514 59.7795 131.523 59.7795 131.523V121.478Z" fill="#FFDBD0"/>
<path d="M59.0091 115.297C56.505 115.297 56.3124 118.195 55.5419 120.126C54.5787 120.448 52.5753 121.324 52.2671 122.251C51.8819 123.41 52.2672 124.955 51.4967 127.08C50.7262 129.205 52.4598 129.398 54.1935 129.784C55.9271 130.171 55.5419 132.102 57.0829 132.875C58.6239 133.648 61.128 131.716 59.9723 131.33C58.8165 130.943 61.128 128.432 61.128 127.08C61.128 125.998 60.3575 123.41 59.9723 122.251C59.8438 122.058 59.8952 121.672 61.128 121.672C62.669 121.672 66.1363 122.637 68.0625 123.024C69.9888 123.41 69.7962 122.637 70.5667 121.092C71.3372 119.547 72.4929 120.126 73.4561 119.16C74.4192 118.195 72.4929 118.001 72.4929 116.842C72.4929 115.683 72.6856 115.297 72.4929 114.138C72.3003 112.979 68.0625 113.752 66.9068 115.297C65.751 116.843 61.5133 115.297 59.0091 115.297Z" fill="#331E94"/>
<path d="M51.3085 148.259C51.3085 146.602 52.6517 145.259 54.3085 145.259H75.2762C76.933 145.259 78.2762 146.602 78.2762 148.259V160.485C78.2762 161.037 77.8285 161.485 77.2762 161.485H52.3085C51.7562 161.485 51.3085 161.037 51.3085 160.485V148.259Z" fill="#9B87EF"/>
<path d="M51.3085 161.968C51.3085 161.701 51.5247 161.485 51.7914 161.485H77.7933C78.06 161.485 78.2762 161.701 78.2762 161.968V161.968C78.2762 162.768 77.6276 163.417 76.8274 163.417H52.7573C51.9572 163.417 51.3085 162.768 51.3085 161.968V161.968Z" fill="#6F52ED"/>
<path fill-rule="evenodd" clip-rule="evenodd" d="M63.6366 151.827V154.583H64.697C65.2132 154.583 66.0923 154.373 66.0923 153.198C66.0923 152.023 65.2132 151.827 64.697 151.827H63.6366ZM64.4598 152.736V153.66H64.8093C64.9794 153.66 65.2691 153.589 65.2691 153.196C65.2691 152.802 64.9794 152.736 64.8093 152.736H64.4598Z" fill="#D5CCF9"/>
<path d="M46.7914 179.952C46.2304 177.27 50.538 175.393 55.7393 174.62C57.0904 174.888 57.4398 175.654 57.7581 176.394C58.156 177.318 55.0377 179.774 53.1628 180.585C51.288 181.397 47.3523 182.633 46.7914 179.952Z" fill="#281679"/>
<path d="M56.4854 174.786L59.5431 173.467L59.6071 175.963L57.3987 176.915C56.6667 177.34 55.4433 178.353 54.4519 176.89C54.2254 175.267 56.1371 175.069 56.4854 174.786Z" fill="#FFBDA9"/>
<path d="M81.3581 158.201C78.8184 159.542 74.1829 163.73 70.5711 165.541C66.3333 167.666 58.8209 171.723 57.4725 173.075C58.1597 175.132 59.5231 176.745 60.5546 176.745C61.586 176.745 80.5877 169.876 86.1164 167.119C90.9297 164.718 94.9001 159.94 92.3049 156.488C90.2525 153.758 84.4523 156.567 81.3581 158.201Z" fill="#3B2B7E"/>
<path d="M84.143 180.879C84.7417 177.744 78.0988 176.673 74.4653 176.098C73.7036 175.978 71.7052 178.49 73.02 179.558C74.6516 180.882 83.3946 184.797 84.143 180.879Z" fill="#281679"/>
<path d="M72.6821 178.298L69.8008 176.626L71.7586 175.084L73.8395 176.291C74.6163 176.626 76.1573 177.005 75.5794 178.676C74.4172 179.828 73.1165 178.409 72.6821 178.298Z" fill="#FFBDA9"/>
<path d="M72.4974 174.04C72.4974 176.358 71.547 177.589 69.9932 178.29C65.5687 177.143 55.7437 172.882 52.4642 171.143C48.369 168.972 40.7683 166.094 38.7262 162.998C35.8168 158.587 38.2477 154.145 44.374 156.269C47.9122 157.496 54.7226 162.654 55.7437 164.374C56.7647 166.094 67.5657 171.588 72.4974 174.04Z" fill="#473591"/>
</svg>
