<svg width="597" height="509" viewBox="0 0 597 509" fill="none" xmlns="http://www.w3.org/2000/svg">
<path d="M98.1224 163.103C58.6394 180.152 38.0014 225.916 45.1799 258.219C80.9093 419.003 269.57 443.71 375.394 392.817C466.497 349.004 434.407 178.091 416.472 128.341C398.537 78.5903 337.707 6.00228 271.4 42.5702C241.592 59.0094 232.498 102.923 212.497 128.341C192.496 153.759 141.518 144.365 98.1224 163.103Z" fill="#6F52ED" fill-opacity="0.2"/>
<path d="M329.5 183.5C327.5 182.7 316.667 179.333 311.5 177V199H329.5C332.5 197 339.5 200.5 339.5 191C339.5 187.5 332 184.5 329.5 183.5Z" fill="#8871ED"/>
<path d="M541.292 274.013C523.683 241.317 462.931 213.182 399.785 248.012C369.388 264.779 275.652 265.616 258.93 352.012C246.93 414.012 310.403 446.562 356 478C401.597 509.438 519.28 511.022 548.368 466.222C558.129 451.189 565.863 393.632 562 380C548.635 332.843 563.305 314.882 541.292 274.013Z" fill="#FF9B2A" fill-opacity="0.2"/>
<path d="M245.864 109.351C253.615 108.243 266.5 109.351 270.779 118.7L278 130.7C276.154 133.933 263.858 136.23 258.321 138.446C251.4 141.217 256 155.167 264 160.5C274.5 167.5 286.463 180.301 292 190C297.537 199.699 277.699 234.046 270.779 240.974C263.858 247.901 245.864 254.829 237.559 257.6C229.253 260.371 198.803 261.756 193.266 242.359C187.729 222.962 201.571 216.035 211.259 210.493C220.948 204.951 216.796 191.096 215.412 184.168C214.028 177.241 208.491 159.229 211.259 146.759C214.028 134.29 236.174 110.736 245.864 109.351Z" fill="#FF6E6E"/>
<path d="M278.999 169C274.151 170.322 266 174 257.5 180.5C253.5 185 236.998 215.5 237.498 223C237.998 230.5 257.498 228.5 271.498 231.5C282.698 233.9 310.165 230.5 322.498 228.5L322.491 228.27C321.99 212.231 321.116 184.242 316.999 180.5C311.499 175.5 302.999 173 296.999 170C290.999 167 284.499 167.5 278.999 169Z" fill="#8871ED"/>
<path d="M336.258 126.96C331.918 133.043 331.345 142.908 331.602 147.08L343.434 154.043C348.916 150.184 360.607 141.347 363.512 136.871C366.416 132.394 366.402 115.754 366.032 107.993C363.626 111.197 358.232 118.032 355.908 119.741C353.003 121.876 341.683 119.356 336.258 126.96Z" fill="#E8E4F9"/>
<path fill-rule="evenodd" clip-rule="evenodd" d="M343.852 121.963C344.801 122.399 345.69 122.984 346.467 123.756C349.144 126.409 350.115 128.886 350.933 130.973C351.669 132.849 352.282 134.411 353.9 135.503C355.42 136.529 358.302 138.156 361.315 139.514C362.255 138.536 363.013 137.639 363.512 136.87C366.417 132.394 366.402 115.753 366.032 107.993C363.626 111.197 358.232 118.032 355.908 119.74C354.925 120.463 352.977 120.653 350.62 120.882C348.554 121.083 346.173 121.315 343.852 121.963Z" fill="#8871ED"/>
<path d="M328.924 145.545C329.227 145.084 329.848 144.956 330.309 145.26L342 152.962C342.461 153.265 342.589 153.886 342.285 154.347L264.828 271.931C263.612 273.775 261.132 274.286 259.287 273.071L252.606 268.67C250.761 267.454 250.251 264.974 251.466 263.129L328.924 145.545Z" fill="#6F52ED"/>
<path d="M97 207C97 198.716 103.716 192 112 192H480C488.284 192 495 198.716 495 207V435H97V207Z" fill="#281679"/>
<ellipse cx="290" cy="463.5" rx="262" ry="16.5" fill="#D5CCF9"/>
<path d="M120 224C120 218.477 124.477 214 130 214H462C467.523 214 472 218.477 472 224V429H120V224Z" fill="#E8E4F9"/>
<path d="M58 429H533V433C533 449.569 519.569 463 503 463H88C71.4315 463 58 449.569 58 433V429Z" fill="#190C52"/>
<path d="M120 224C120 218.477 124.477 214 130 214H462C467.523 214 472 218.477 472 224V235H120V224Z" fill="#8871ED"/>
<circle cx="458.5" cy="224.5" r="4.5" fill="#FF6E6E"/>
<circle cx="443.5" cy="224.5" r="4.5" fill="#B2A2F3"/>
<circle cx="428.5" cy="224.5" r="4.5" fill="#B2A2F3"/>
<rect x="248" y="273" width="210" height="145" rx="15" fill="#D5CCF9"/>
<rect x="248" y="246" width="210" height="17" rx="4" fill="#D5CCF9"/>
<rect x="128" y="246" width="104" height="87" rx="4" fill="#D5CCF9"/>
<rect x="128" y="344" width="104" height="5" rx="2.5" fill="#D5CCF9"/>
<rect x="128" y="377" width="104" height="5" rx="2.5" fill="#D5CCF9"/>
<rect x="128" y="355" width="104" height="5" rx="2.5" fill="#D5CCF9"/>
<rect x="128" y="388" width="104" height="5" rx="2.5" fill="#D5CCF9"/>
<rect x="128" y="366" width="104" height="5" rx="2.5" fill="#D5CCF9"/>
<path d="M254.912 338.002C251.831 334.189 248.769 335.086 247.624 336.011C240.751 341.564 224.641 353.678 215.183 357.717C203.36 362.767 181.456 354.385 176.409 351.9C169.5 348.5 164.444 341.308 153.173 352.664C141.902 364.02 157.443 376.226 162.118 379.202C166.794 382.178 207.628 380.703 213.402 379.415C218.022 378.384 243.277 356.406 255.327 345.546C256.472 344.62 257.993 341.816 254.912 338.002Z" fill="#FF951D"/>
<rect x="128" y="399" width="104" height="5" rx="2.5" fill="#D5CCF9"/>
<path fill-rule="evenodd" clip-rule="evenodd" d="M8 232C3.58172 232 0 235.582 0 240V289C0 293.418 3.58172 297 8 297H59L67 305V296.748C70.4505 295.86 73 292.728 73 289V240C73 235.582 69.4183 232 65 232H8Z" fill="#8871ED"/>
<path fill-rule="evenodd" clip-rule="evenodd" d="M157 38C152.582 38 149 41.5817 149 46V94C149 98.4183 152.582 102 157 102H207L215 110V101.748C218.45 100.86 221 97.7277 221 94V46C221 41.5817 217.418 38 213 38H157Z" fill="#8871ED"/>
<path fill-rule="evenodd" clip-rule="evenodd" d="M519 255C514.582 255 511 258.582 511 263V324C511 328.418 514.582 332 519 332L519 340L527 332H589C593.418 332 597 328.418 597 324V263C597 258.582 593.418 255 589 255H519Z" fill="#8871ED"/>
<path d="M257.5 126.2C255.734 129.437 256.5 133.033 257.5 134.7C258.833 135.2 261.5 135.9 261.5 134.7C261.5 133.2 263 130.7 266 126.2C268.4 122.6 271.666 120.033 273 119.2C266 117.699 262.136 117.7 257.5 126.2Z" fill="#4F37BD"/>
<path d="M292 171.5V166L281.5 165L282.5 171.5C283.833 172.667 286.9 175 288.5 175C290.1 175 291.5 172.667 292 171.5Z" fill="#FECBBB"/>
<path d="M285.956 201.859L287.443 206.788C297.802 206.994 320.31 207.182 327.465 206.283C336.408 205.158 341.189 194.94 339.872 191.584C338.556 188.227 332.905 185.975 325.534 186.93C319.637 187.694 296.692 197.201 285.956 201.859Z" fill="#9E89F4"/>
<path d="M276.348 176.483L273.462 172.22C263.511 175.107 241.968 181.629 235.405 184.618C227.202 188.354 225.68 199.532 227.937 202.344C230.193 205.156 236.258 205.624 243.01 202.518C248.413 200.033 267.487 184.126 276.348 176.483Z" fill="#9E89F4"/>
<ellipse cx="280.219" cy="207.563" rx="2.5" ry="7.29126" transform="rotate(50.556 280.219 207.563)" fill="#FFDBD0"/>
<ellipse cx="360.412" cy="254.556" rx="3.80607" ry="7.29126" transform="rotate(143.248 360.412 254.556)" fill="#FFDBD0"/>
<ellipse cx="367.767" cy="362.825" rx="3.80607" ry="7.29126" transform="rotate(98.3577 367.767 362.825)" fill="#FFDBD0"/>
<ellipse cx="261.847" cy="332.847" rx="3.80607" ry="7.29126" transform="rotate(45 261.847 332.847)" fill="#FFDBD0"/>
<path d="M295.5 167.2C302.137 164.957 303.101 143.931 300.335 135.987C295.265 133.651 282.912 129.258 274.062 130.38C265.212 131.501 261.5 140.86 261.5 146C265.648 152.075 264.5 162 278 167.2C283.325 169.251 287.203 170.003 295.5 167.2Z" fill="#FFDBD0"/>
<path d="M292.505 145.2C286.172 146.533 272.105 149 266.505 148.2V156.2C261.5 148.2 260.5 149.7 258 145.2C255.5 140.7 257.495 132.699 263.5 124.7C266.082 121.26 276.006 114.2 288.006 115.7C300.006 117.2 300.505 125.2 300.505 131.2C305.305 133.6 304.172 141.533 303.005 145.2H297.505C295.839 141.866 292.505 135.4 292.505 136.2V145.2Z" fill="#FF6E6E"/>
<ellipse cx="275.897" cy="167.642" rx="2.5" ry="7.29126" transform="rotate(-11.4427 275.897 167.642)" fill="#FECBBB"/>
<path d="M368.417 262.207C364.702 264.33 364.136 266.692 364.317 267.607C370.17 277.85 383.745 300.528 391.221 309.3C400.566 320.264 430.32 332.814 437.597 334.77C444.874 336.726 448.222 324.622 451.214 320.875C454.205 317.127 444.629 309.352 443.312 307.047C441.995 304.743 407.159 294.078 398.126 289.049C390.9 285.026 379.282 269.246 374.377 261.859C373.938 261.091 372.131 260.085 368.417 262.207Z" fill="#26BFCE"/>
<path d="M436 495.64V487L442 489.4V495.64C441.158 496.76 439.221 499 438.211 499C437.2 499 436.316 496.76 436 495.64Z" fill="#FFBDA9"/>
<path d="M485.486 493.5L481 486.115L487.374 485.051L490.614 490.384C490.476 491.779 489.983 494.699 489.119 495.223C488.256 495.748 486.337 494.293 485.486 493.5Z" fill="#FFBDA9"/>
<path d="M545.498 299.199C547.662 301.805 547.133 303.159 547.77 305.15L555.883 308C557.208 307.683 559.173 306.67 559.428 305.15C559.746 303.249 560.356 301.105 561.875 299.199C564.125 296.375 568.989 294.5 568.989 286.804C568.989 277.616 562.176 272 553.937 272C545.697 272 539 279.058 539 286.804C539 293.331 542.794 295.941 545.498 299.199Z" fill="#E8E4F9"/>
<path d="M549.5 287.375L551.375 289.25L552.5 287.75L554 289.25L555.5 287.375L556.25 289.25L558.125 287" stroke="#4F37BD"/>
<ellipse cx="549.5" cy="287.75" rx="0.75" ry="2.25" fill="#4F37BD"/>
<path d="M549.125 288.125C549.725 290.825 550.875 299.5 551.375 303.5" stroke="#4F37BD"/>
<path d="M558.5 288.125C557.9 290.825 556.75 299.5 556.25 303.5" stroke="#4F37BD"/>
<ellipse cx="558.5" cy="287.75" rx="0.75" ry="2.25" fill="#4F37BD"/>
<circle cx="553.625" cy="313.625" r="3.375" fill="#281679"/>
<rect x="546.5" y="302.75" width="14.25" height="12" rx="3" fill="#B2A2F3"/>
<path d="M22.5 253L13 264L22.5 275.5" stroke="#D5CCF9" stroke-width="3"/>
<path d="M50.5 275.5L60 264.5L50.5 253" stroke="#D5CCF9" stroke-width="3"/>
<path d="M31.5 275.5L41.5 253" stroke="#D5CCF9" stroke-width="3"/>
<path d="M207.685 70.0394C207.685 80.0024 196.783 89.998 175.354 86.1598C170.466 81.9378 180.242 79.6349 177.234 75.7967C174.226 71.9585 167.835 79.2511 164.452 76.9482C161.068 74.6453 161.829 67.7486 162.948 64.666C165.186 58.5 173.255 52 185.505 52C197.755 52 207.685 60.0765 207.685 70.0394Z" fill="#E8E4F9"/>
<path d="M187.686 61.6113C187.686 63.4758 185.1 66 181.911 66C180.106 64.9873 176.677 62.6241 176.135 61.6113C174.331 58.2353 178.301 57.5602 181.911 58.2353C185.52 58.9105 187.686 59.7468 187.686 61.6113Z" fill="#B2A2F3"/>
<path d="M188.686 75.0964C188.686 76.9609 191.271 79.4851 194.461 79.4851C196.266 78.4724 199.695 76.1092 200.236 75.0964C202.041 71.7204 197.007 70.9852 194.461 73.485C190.852 74.1602 188.686 73.2319 188.686 75.0964Z" fill="#FF6E6E"/>
<path d="M191.778 62.4781C190.936 62.8417 190.496 63.8176 190.649 64.5065C191.411 67.9354 195.434 68.4623 197.691 67.3769C199.634 66.4426 198.95 62.7977 198.567 61.7368C198.185 60.6758 196.887 59.1278 195.473 59.9077C194.838 60.2583 194.644 61.1947 194.217 61.7368C193.791 62.2788 192.704 62.0785 191.778 62.4781Z" fill="#FF9B2A"/>
<path d="M424.36 438.385C421.897 421.154 423.334 394.282 424.36 383L476.688 390.692C476.944 407.359 477.919 442.692 479.766 450.692C481.613 458.692 486.691 478.128 489 486.846L482.074 490.692C476.688 479.667 465.299 456.231 462.836 450.692C460.374 445.154 453.602 422.744 450.524 412.231C447.702 419.667 442.059 436.692 442.059 445.308V493H434.364C432.055 481.974 426.822 455.615 424.36 438.385Z" fill="#331E94"/>
<path d="M443 507C444.5 501.5 443 495.5 443 495.5L432 494C431.67 495.771 431.964 494.25 428 498.5C423.045 503.812 418.252 494.688 412.306 500C407.55 504.25 409.325 507 409.325 507C409.325 507 419.925 508.5 426.5 508.5C433.076 508.5 436 508.5 443 507Z" fill="#281679"/>
<path d="M497 501C495.5 494 493.5 489.5 493.5 489.5L480.5 492.5C480.151 494.271 482.683 492.25 478.5 496.5C473.271 501.812 472.774 494.188 466.5 499.5C461.48 503.75 464.5 507 464.5 507C464.5 507 474.544 507.976 480.5 507C486.455 506.024 493.5 504 497 501Z" fill="#331E94"/>
<path d="M200.229 468.2C201.783 460.085 184.54 457.314 175.108 455.826C173.131 455.515 167.944 462.017 171.357 464.781C175.592 468.21 198.286 478.344 200.229 468.2Z" fill="#281679"/>
<path d="M160.954 416.477C168.758 415.062 193.5 405.867 212.39 402.331C222.5 402.331 220.887 407.594 220 412L199.087 431.507L168.935 443L142.33 440.348L103.31 427.086C94.4419 421.487 74.8346 416.477 82.9132 405.867C87.0003 400.5 95.1517 402.331 103.31 404.5C116.613 408.036 151.199 418.245 160.954 416.477Z" fill="#36296F"/>
<path d="M152.449 346.1C143.56 346.1 129.339 345.206 124.006 348.779C116.007 351.088 96.1566 388.964 99.1191 397.894C100.897 403.252 128.45 414.861 148.004 417.54C167.559 420.219 172.5 414.5 180 411.5C181.5 405 183 399 183 391.5C183 379.278 181.999 357.251 174 351C166.001 344.749 161.337 346.1 152.449 346.1Z" fill="#FF9B2A"/>
<path d="M103.275 465.801C101.819 458.859 113 454 126.501 452C130.008 452.694 130.915 454.677 131.741 456.591C132.774 458.984 124.68 465.34 119.813 467.441C114.947 469.541 104.731 472.743 103.275 465.801Z" fill="#281679"/>
<path d="M115 379C115 377.343 116.343 376 118 376H182C183.657 376 185 377.343 185 379V417C185 417.552 184.552 418 184 418H116C115.448 418 115 417.552 115 417V379Z" fill="#8871ED"/>
<path d="M128.438 452.429L136.375 449.015L136.541 455.475L130.808 457.941C128.908 459.04 125.733 461.662 123.159 457.875C122.571 453.676 127.534 453.162 128.438 452.429Z" fill="#FFBDA9"/>
<path d="M115 419C115 418.448 115.448 418 116 418H184C184.552 418 185 418.448 185 419V420C185 421.657 183.657 423 182 423H118C116.343 423 115 421.657 115 420V419Z" fill="#6F52ED"/>
<path d="M193 409.5C186.407 412.972 174.375 423.812 165 428.5C154 434 134.5 444.5 131 448C132.784 453.326 136.323 457.5 139 457.5C141.677 457.5 191 439.721 205.351 432.584C217.845 426.37 228.151 414 221.415 405.066C216.087 398 201.032 405.271 193 409.5Z" fill="#3B2B7E"/>
<path d="M154.488 347.5V342L143.988 341L144.988 347.5C146.322 348.667 149.388 351 150.988 351C152.588 351 153.988 348.667 154.488 347.5Z" fill="#FECBBB"/>
<path d="M136.988 314.444H157.988C157.988 314.444 165.887 334.064 157.988 340.444C151.608 345.597 136.988 340.444 136.988 340.444V314.444Z" fill="#FFDBD0"/>
<path d="M134.988 298.444C128.488 298.444 127.988 305.944 125.988 310.944C123.488 311.778 118.288 314.044 117.488 316.444C116.488 319.444 117.488 323.444 115.488 328.944C113.488 334.444 117.988 334.944 122.488 335.944C126.988 336.944 125.988 341.944 129.988 343.944C133.988 345.944 140.488 340.944 137.488 339.944C134.488 338.944 140.488 332.444 140.488 328.944C140.488 326.144 138.488 319.444 137.488 316.444C137.155 315.944 137.288 314.944 140.488 314.944C144.488 314.944 153.488 317.444 158.488 318.444C163.488 319.444 162.988 317.444 164.988 313.444C166.988 309.444 169.988 310.944 172.488 308.444C174.988 305.944 169.988 305.444 169.988 302.444C169.988 299.444 170.488 298.444 169.988 295.444C169.488 292.444 158.488 294.444 155.488 298.444C152.488 302.444 141.488 298.444 134.988 298.444Z" fill="#331E94"/>
<path d="M423 322.5C421.423 329.5 421.423 388 421.423 388C422.949 389.528 426 392.051 433.5 392.051C443.683 392.051 443.206 390.5 449.5 390.5C457 390.5 453 393 464.5 394.5C471.5 395.413 475.866 393.07 477.901 392.051L479 333C479 324.895 475.843 315.457 470.5 310.999C461.341 303.359 444.106 303.707 438 306C433.115 307.833 424.578 315.5 423 322.5Z" fill="#29C8D8"/>
<path d="M376 362.711C376 357.809 378.945 356.583 380.418 356.583C389.253 356.583 409.398 355.882 419.293 353.081C431.663 349.579 442.265 328.567 445.799 324.19C449.333 319.812 448.45 308.431 464.353 310.182C480.257 311.933 475.839 331.193 474.072 336.446C472.305 341.699 439.615 366.213 434.313 368.84C430.072 370.941 396.616 369.715 380.418 368.84C378.945 368.84 376 367.614 376 362.711Z" fill="#2ED2E2"/>
<path d="M444 306.5V297.5L453.5 300V306.5C452.167 307.667 449.1 310 447.5 310C445.9 310 444.5 307.667 444 306.5Z" fill="#FECBBB"/>
<path d="M461.348 272H439.631C439.631 272 431.462 292.649 439.631 299.364C446.229 304.787 453.235 303.601 460.624 299.364C467.863 295.213 472 286.941 472 281.004C472 276.255 461.348 272 461.348 272Z" fill="#FFDBD0"/>
<path d="M435.232 275.062C443.599 279.769 455.552 271.532 459.138 275.062C460.095 276.945 458.739 285.26 457.942 289.182C459.137 287.221 462.484 283.77 466.309 285.652C471.091 288.005 464.105 296.641 469.5 290.5C472.136 287.5 477.568 284 474.5 270.5C472.341 261 461.501 259.766 459.137 259.766C459.137 257.413 454.356 253.883 453.161 251.53C451.966 249.177 448.38 250.353 445.989 251.53C443.598 252.707 443.598 248 441.208 248C438.817 248 438.817 256.236 437.622 256.236C436.665 256.236 435.232 252.5 432.84 251.53C431.247 252.707 428.898 255.893 428.06 258.59C427 262 426.865 270.356 435.232 275.062Z" fill="#4F37BD"/>
<path d="M170.479 461.52L163.001 457.194L168.082 453.202L173.484 456.326C175.5 457.194 179.5 458.174 178 462.5C174.983 465.48 171.607 461.807 170.479 461.52Z" fill="#FFBDA9"/>
<path d="M170 450.5C170 456.5 167.533 459.685 163.5 461.5C152.015 458.531 126.512 447.5 118 443C107.37 437.38 87.6406 429.931 82.3401 421.917C74.7882 410.5 81.0979 399 97 404.499C106.184 407.676 123.862 421.027 126.512 425.479C129.163 429.931 157.199 444.15 170 450.5Z" fill="#473591"/>
<path fill-rule="evenodd" clip-rule="evenodd" d="M147 393V400.135H149.752C151.093 400.135 153.374 399.591 153.374 396.549C153.374 393.507 151.093 393 149.752 393H147ZM149.137 395.354V397.744H150.044C150.485 397.744 151.237 397.562 151.237 396.543C151.237 395.524 150.485 395.354 150.044 395.354H149.137Z" fill="#D5CCF9"/>
</svg>
